<?xml version="1.0" standalone="no"?>
<!DOCTYPE svg PUBLIC "-//W3C//DTD SVG 1.1//EN" "http://www.w3.org/Graphics/SVG/1.1/DTD/svg11.dtd" >
<svg xmlns="http://www.w3.org/2000/svg" xmlns:xlink="http://www.w3.org/1999/xlink" version="1.1">
<metadata>
Created by FontForge 20190801 at Mon Jun 11 10:31:06 2018
 By root
Pangram Pangram\(R\)
</metadata>
<defs>
<font id="GoshaSans-Ultralight" horiz-adv-x="180" >
  <font-face 
    font-family="Gosha Sans Ultralight"
    font-weight="250"
    font-stretch="normal"
    units-per-em="1000"
    panose-1="0 0 3 0 0 0 0 0 0 0"
    ascent="800"
    descent="-200"
    x-height="500"
    cap-height="680"
    bbox="-720 -218 1500 1010"
    underline-thickness="50"
    underline-position="-100"
    stemh="40"
    stemv="40"
    unicode-range="U+0020-25CA"
  />
<missing-glyph horiz-adv-x="450" 
d="M369 700v-900h-285v900h285zM300 640h-149v-30h59v-33h-60v-30h150v30h-60v33h60v30zM240 524h-90v-94h150v31h-60v63zM210 493v-32h-30v32h30zM300 406h-150v-30h60v-33h-60v-30h90v63h60v30zM300 352h-30v-60h-120v-30h150v90zM300 242h-90v-50h30v20h30v-42h-90v72
h-30v-102h150v102zM300 86h-150v-102h150v102zM270 57v-43h-90v43h90zM300 -36h-150v-30h63l-63 -42v-30h150v30h-92l63 42h29v30z" />
    <glyph glyph-name="f_f" unicode="ff" horiz-adv-x="714" 
d="M654 660h-172v-160h172v-40h-172v-460h-40v460h-252v-460h-40v460h-100v40h100v200h212v-40h-172v-160h252v200h212v-40z" />
    <glyph glyph-name="f_f_i" unicode="ffi" horiz-adv-x="784" 
d="M714 500v-500h-40v460h-212v-460h-40v460h-232v-460h-40v460h-100v40h100v200h212v-40h-172v-160h232v200h192v-40h-152v-160h252zM674 700h40v-100h-40v100z" />
    <glyph glyph-name="f_f_l" unicode="ffl" horiz-adv-x="804" 
d="M734 700v-700h-40v660h-232v-160h172v-40h-172v-460h-40v460h-232v-460h-40v460h-100v40h100v200h212v-40h-172v-160h232v200h312z" />
    <glyph glyph-name=".notdef" horiz-adv-x="450" 
d="M369 700v-900h-285v900h285zM300 640h-149v-30h59v-33h-60v-30h150v30h-60v33h60v30zM240 524h-90v-94h150v31h-60v63zM210 493v-32h-30v32h30zM300 406h-150v-30h60v-33h-60v-30h90v63h60v30zM300 352h-30v-60h-120v-30h150v90zM300 242h-90v-50h30v20h30v-42h-90v72
h-30v-102h150v102zM300 86h-150v-102h150v102zM270 57v-43h-90v43h90zM300 -36h-150v-30h63l-63 -42v-30h150v30h-92l63 42h29v30z" />
    <glyph glyph-name="A" unicode="A" horiz-adv-x="646" 
d="M544 0l-62 185h-318l-62 -185h-42l229 680h68l229 -680h-42zM178 225h290l-137 407h-16z" />
    <glyph glyph-name="Aacute" unicode="&#xc1;" horiz-adv-x="646" 
d="M451 940l-91 -150h-47l91 150h47zM544 0l-62 185h-318l-62 -185h-42l229 680h68l229 -680h-42zM178 225h290l-137 407h-16z" />
    <glyph glyph-name="Abreve" unicode="&#x102;" horiz-adv-x="646" 
d="M333 780c-75 0 -135 30 -135 150h40c0 -100 47 -110 95 -110s95 10 95 110h40c0 -118 -60 -150 -135 -150zM544 0l-62 185h-318l-62 -185h-42l229 680h68l229 -680h-42zM178 225h290l-137 407h-16z" />
    <glyph glyph-name="Acircumflex" unicode="&#xc2;" horiz-adv-x="646" 
d="M330 906l-92 -126h-50l125 170h40l125 -170h-50l-92 126h-6zM544 0l-62 185h-318l-62 -185h-42l229 680h68l229 -680h-42zM178 225h290l-137 407h-16z" />
    <glyph glyph-name="Adieresis" unicode="&#xc4;" horiz-adv-x="646" 
d="M293 880v-60h-60v60h60zM433 880v-60h-60v60h60zM544 0l-62 185h-318l-62 -185h-42l229 680h68l229 -680h-42zM178 225h290l-137 407h-16z" />
    <glyph glyph-name="Agrave" unicode="&#xc0;" horiz-adv-x="646" 
d="M356 790h-47l-91 150h47zM544 0l-62 185h-318l-62 -185h-42l229 680h68l229 -680h-42zM178 225h290l-137 407h-16z" />
    <glyph glyph-name="Amacron" unicode="&#x100;" horiz-adv-x="646" 
d="M489 880v-40h-312v40h312zM544 0l-62 185h-318l-62 -185h-42l229 680h68l229 -680h-42zM178 225h290l-137 407h-16z" />
    <glyph glyph-name="Aogonek" unicode="&#x104;" horiz-adv-x="646" 
d="M596 0c-43 -52 -63 -150 88 -130v-40c-174 -20 -189 111 -128 170h-12l-62 185h-318l-62 -185h-42l229 680h68l229 -680h10zM178 225h290l-137 407h-16z" />
    <glyph glyph-name="Aring" unicode="&#xc5;" horiz-adv-x="646" 
d="M333 770c-73 0 -120 57 -120 120s47 120 120 120c72 0 120 -57 120 -120s-48 -120 -120 -120zM333 970c-33 0 -80 -18 -80 -80s47 -80 80 -80s80 18 80 80s-47 80 -80 80zM544 0l-62 185h-318l-62 -185h-42l229 680h68l229 -680h-42zM178 225h290l-137 407h-16z" />
    <glyph glyph-name="Atilde" unicode="&#xc3;" horiz-adv-x="646" 
d="M256 900c-33 0 -60 -20 -60 -100h-40c0 50 14 140 100 140c81 0 98 -100 154 -100c33 0 60 20 60 100h40c0 -50 -14 -140 -100 -140c-81 0 -98 100 -154 100zM544 0l-62 185h-318l-62 -185h-42l229 680h68l229 -680h-42zM178 225h290l-137 407h-16z" />
    <glyph glyph-name="AE" unicode="&#xc6;" horiz-adv-x="960" 
d="M900 640h-398v-270h308v-40h-308v-290h398v-40h-438v185h-302l-58 -185h-42l214 680h626v-40zM462 225v415h-159l-130 -415h289z" />
    <glyph glyph-name="B" unicode="B" horiz-adv-x="568" 
d="M392 352c87 -15 116 -99 116 -167c0 -102 -44 -185 -199 -185h-239v680h229c152 0 179 -93 179 -165c0 -62 -16 -123 -86 -147v-16zM110 640v-260h189c117 0 139 65 139 135c0 65 -22 125 -139 125h-189zM309 40c119 0 159 50 159 145c0 85 -50 155 -169 155h-189v-300
h199z" />
    <glyph glyph-name="C" unicode="C" horiz-adv-x="689" 
d="M50 340c0 170 84 340 302 340c186 0 281 -119 287 -259h-40c-27 168 -111 219 -247 219c-144 0 -262 -89 -262 -300s118 -300 262 -300c136 0 220 51 247 219h40c-6 -140 -101 -259 -287 -259c-218 0 -302 170 -302 340z" />
    <glyph glyph-name="Cacute" unicode="&#x106;" horiz-adv-x="689" 
d="M426 940h47l-91 -150h-47zM50 340c0 170 84 340 302 340c186 0 281 -119 287 -259h-40c-27 168 -111 219 -247 219c-144 0 -262 -89 -262 -300s118 -300 262 -300c136 0 220 51 247 219h40c-6 -140 -101 -259 -287 -259c-218 0 -302 170 -302 340z" />
    <glyph glyph-name="Ccaron" unicode="&#x10c;" horiz-adv-x="689" 
d="M335 790l-125 170h50l92 -126h6l92 126h50l-125 -170h-40zM352 40c136 0 220 51 247 219h40c-6 -140 -101 -259 -287 -259c-218 0 -302 170 -302 340s84 340 302 340c186 0 281 -119 287 -259h-40c-27 168 -111 219 -247 219c-144 0 -262 -89 -262 -300
s118 -300 262 -300z" />
    <glyph glyph-name="Ccedilla" unicode="&#xc7;" horiz-adv-x="689" 
d="M352 40c136 0 220 51 247 219h40c-6 -136 -95 -252 -270 -259l-13 -20c80 0 68 -140 -78 -140v40c107 0 117 90 33 90l19 31c-202 11 -280 175 -280 339c0 170 84 340 302 340c186 0 281 -119 287 -259h-40c-27 168 -111 219 -247 219c-144 0 -262 -89 -262 -300
s118 -300 262 -300z" />
    <glyph glyph-name="Cdotaccent" unicode="&#x10a;" horiz-adv-x="689" 
d="M325 880h60v-60h-60v60zM50 340c0 170 84 340 302 340c186 0 281 -119 287 -259h-40c-27 168 -111 219 -247 219c-144 0 -262 -89 -262 -300s118 -300 262 -300c136 0 220 51 247 219h40c-6 -140 -101 -259 -287 -259c-218 0 -302 170 -302 340z" />
    <glyph glyph-name="D" unicode="D" horiz-adv-x="659" 
d="M294 680c226 0 305 -115 305 -340c0 -224 -79 -340 -305 -340h-224v680h224zM294 40c156 0 265 49 265 300c0 255 -109 300 -265 300h-184v-600h184z" />
    <glyph glyph-name="Eth" unicode="&#xd0;" horiz-adv-x="679" 
d="M324 680c226 0 305 -115 305 -340c0 -224 -79 -340 -305 -340h-224v301h-70v40h70v339h224zM324 40c156 0 265 49 265 300c0 255 -109 300 -265 300h-184v-299h242v-40h-242v-261h184z" />
    <glyph glyph-name="Dcaron" unicode="&#x10e;" horiz-adv-x="659" 
d="M275 790l-125 170h50l92 -126h6l92 126h50l-125 -170h-40zM294 680c226 0 305 -115 305 -340c0 -224 -79 -340 -305 -340h-224v680h224zM294 40c156 0 265 49 265 300c0 255 -109 300 -265 300h-184v-600h184z" />
    <glyph glyph-name="Dcroat" unicode="&#x110;" horiz-adv-x="679" 
d="M324 680c226 0 305 -115 305 -340c0 -224 -79 -340 -305 -340h-224v301h-70v40h70v339h224zM324 40c156 0 265 49 265 300c0 255 -109 300 -265 300h-184v-299h242v-40h-242v-261h184z" />
    <glyph glyph-name="E" unicode="E" horiz-adv-x="568" 
d="M508 640h-398v-270h308v-40h-308v-290h398v-40h-438v680h438v-40z" />
    <glyph glyph-name="Eacute" unicode="&#xc9;" horiz-adv-x="568" 
d="M407 940l-91 -150h-47l91 150h47zM508 640h-398v-270h308v-40h-308v-290h398v-40h-438v680h438v-40z" />
    <glyph glyph-name="Ecaron" unicode="&#x11a;" horiz-adv-x="568" 
d="M269 790l-125 170h50l92 -126h6l92 126h50l-125 -170h-40zM508 640h-398v-270h308v-40h-308v-290h398v-40h-438v680h438v-40z" />
    <glyph glyph-name="Ecircumflex" unicode="&#xca;" horiz-adv-x="568" 
d="M286 906l-92 -126h-50l125 170h40l125 -170h-50l-92 126h-6zM508 640h-398v-270h308v-40h-308v-290h398v-40h-438v680h438v-40z" />
    <glyph glyph-name="Edieresis" unicode="&#xcb;" horiz-adv-x="568" 
d="M249 880v-60h-60v60h60zM389 880v-60h-60v60h60zM508 640h-398v-270h308v-40h-308v-290h398v-40h-438v680h438v-40z" />
    <glyph glyph-name="Edotaccent" unicode="&#x116;" horiz-adv-x="568" 
d="M319 880v-60h-60v60h60zM508 640h-398v-270h308v-40h-308v-290h398v-40h-438v680h438v-40z" />
    <glyph glyph-name="Egrave" unicode="&#xc8;" horiz-adv-x="568" 
d="M312 790h-47l-91 150h47zM508 640h-398v-270h308v-40h-308v-290h398v-40h-438v680h438v-40z" />
    <glyph glyph-name="Emacron" unicode="&#x112;" horiz-adv-x="568" 
d="M445 880v-40h-312v40h312zM508 640h-398v-270h308v-40h-308v-290h398v-40h-438v680h438v-40z" />
    <glyph glyph-name="Eogonek" unicode="&#x118;" horiz-adv-x="568" 
d="M508 0c-43 -52 -63 -150 88 -130v-40c-174 -20 -189 111 -128 170h-398v680h438v-40h-398v-270h308v-40h-308v-290h398v-40z" />
    <glyph glyph-name="F" unicode="F" horiz-adv-x="558" 
d="M498 640h-398v-310h339v-40h-339v-290h-40v680h438v-40z" />
    <glyph glyph-name="G" unicode="G" horiz-adv-x="699" 
d="M277 339h362v-339h-40v155h-16c-38 -79 -107 -155 -236 -155c-213 0 -297 170 -297 340s74 340 297 340c161 0 262 -99 272 -229h-39c-13 134 -122 189 -233 189c-139 0 -257 -83 -257 -300c0 -219 128 -300 257 -300s242 111 252 259h-322v40z" />
    <glyph glyph-name="Gbreve" unicode="&#x11e;" horiz-adv-x="699" 
d="M355 780c-75 0 -135 30 -135 150h40c0 -100 47 -110 95 -110s95 10 95 110h40c0 -118 -60 -150 -135 -150zM277 339h362v-339h-40v155h-16c-38 -79 -107 -155 -236 -155c-213 0 -297 170 -297 340s74 340 297 340c161 0 262 -99 272 -229h-39c-13 134 -122 189 -233 189
c-139 0 -257 -83 -257 -300c0 -219 128 -300 257 -300s242 111 252 259h-322v40z" />
    <glyph glyph-name="Gcommaaccent" unicode="&#x122;" horiz-adv-x="699" 
d="M277 339h362v-339h-40v155h-16c-38 -79 -107 -155 -236 -155c-213 0 -297 170 -297 340s74 340 297 340c161 0 262 -99 272 -229h-39c-13 134 -122 189 -233 189c-139 0 -257 -83 -257 -300c0 -219 128 -300 257 -300s242 111 252 259h-322v40zM327 -100v60h60v-60
l-29 -70h-21l20 70h-30z" />
    <glyph glyph-name="Gdotaccent" unicode="&#x120;" horiz-adv-x="699" 
d="M385 880v-60h-60v60h60zM277 339h362v-339h-40v155h-16c-38 -79 -107 -155 -236 -155c-213 0 -297 170 -297 340s74 340 297 340c161 0 262 -99 272 -229h-39c-13 134 -122 189 -233 189c-139 0 -257 -83 -257 -300c0 -219 128 -300 257 -300s242 111 252 259h-322v40z
" />
    <glyph glyph-name="H" unicode="H" horiz-adv-x="639" 
d="M529 680h40v-680h-40v310h-419v-310h-40v680h40v-330h419v330z" />
    <glyph glyph-name="Hbar" unicode="&#x126;" horiz-adv-x="780" 
d="M720 560v-40h-80v-520h-40v310h-419v-310h-40v520h-81v40h81v120h40v-120h419v120h40v-120h80zM600 350v170h-419v-170h419z" />
    <glyph glyph-name="I" unicode="I" 
d="M70 0v680h40v-680h-40z" />
    <glyph glyph-name="Iacute" unicode="&#xcd;" 
d="M161 940h47l-91 -150h-47zM70 0v680h40v-680h-40z" />
    <glyph glyph-name="Icircumflex" unicode="&#xce;" 
d="M110 950l125 -170h-50l-92 126h-6l-92 -126h-50l125 170h40zM70 0v680h40v-680h-40z" />
    <glyph glyph-name="Idieresis" unicode="&#xcf;" 
d="M-10 880h60v-60h-60v60zM130 880h60v-60h-60v60zM70 0v680h40v-680h-40z" />
    <glyph glyph-name="Idotaccent" unicode="&#x130;" 
d="M60 880h60v-60h-60v60zM70 0v680h40v-680h-40z" />
    <glyph glyph-name="Igrave" unicode="&#xcc;" 
d="M22 940l91 -150h-47l-91 150h47zM70 0v680h40v-680h-40z" />
    <glyph glyph-name="Imacron" unicode="&#x12a;" 
d="M-66 840v40h312v-40h-312zM70 0v680h40v-680h-40z" />
    <glyph glyph-name="Iogonek" unicode="&#x12e;" 
d="M110 0c-43 -52 -63 -150 88 -130v-40c-174 -20 -189 111 -128 170v680h40v-680z" />
    <glyph glyph-name="J" unicode="J" horiz-adv-x="440" 
d="M330 680h40v-680h-310v40h270v640z" />
    <glyph glyph-name="K" unicode="K" horiz-adv-x="620" 
d="M560 680l-242 -340l242 -340h-49l-228 320h-173v-320h-40v680h40v-320h173l228 320h49z" />
    <glyph glyph-name="Kcommaaccent" unicode="&#x136;" horiz-adv-x="620" 
d="M560 680l-242 -340l242 -340h-49l-228 320h-173v-320h-40v680h40v-320h173l228 320h49zM275 -100v60h60v-60l-29 -70h-21l20 70h-30z" />
    <glyph glyph-name="L" unicode="L" horiz-adv-x="508" 
d="M110 40h338v-40h-378v680h40v-640z" />
    <glyph glyph-name="Lacute" unicode="&#x139;" horiz-adv-x="508" 
d="M208 940l-91 -150h-47l91 150h47zM110 40h338v-40h-378v680h40v-640z" />
    <glyph glyph-name="Lcaron" unicode="&#x13d;" horiz-adv-x="498" 
d="M280 560h-30l19 80h-19v60h60v-60zM110 40h338v-40h-378v680h40v-640z" />
    <glyph glyph-name="Lcommaaccent" unicode="&#x13b;" horiz-adv-x="508" 
d="M110 40h338v-40h-378v680h40v-640zM229 -100v60h60v-60l-29 -70h-21l20 70h-30z" />
    <glyph glyph-name="Lslash" unicode="&#x141;" horiz-adv-x="574" 
d="M186 40h338v-40h-378v257l-86 -46v45l86 46v378h40v-357l186 100v-45l-186 -100v-238z" />
    <glyph glyph-name="M" unicode="M" horiz-adv-x="874" 
d="M764 680h40v-680h-40v569h-16l-284 -513h-54l-284 513h-16v-569h-40v680h40l319 -576h16z" />
    <glyph glyph-name="N" unicode="N" horiz-adv-x="640" 
d="M530 680h40v-680h-40l-404 586h-16v-586h-40v680h40l404 -586h16v586z" />
    <glyph glyph-name="Nacute" unicode="&#x143;" horiz-adv-x="640" 
d="M438 940l-91 -150h-47l91 150h47zM530 680h40v-680h-40l-404 586h-16v-586h-40v680h40l404 -586h16v586z" />
    <glyph glyph-name="Ncaron" unicode="&#x147;" horiz-adv-x="640" 
d="M300 790l-125 170h50l92 -126h6l92 126h50l-125 -170h-40zM530 680h40v-680h-40l-404 586h-16v-586h-40v680h40l404 -586h16v586z" />
    <glyph glyph-name="Ncommaaccent" unicode="&#x145;" horiz-adv-x="640" 
d="M530 680h40v-680h-40l-404 586h-16v-586h-40v680h40l404 -586h16v586zM290 -100v60h60v-60l-29 -70h-21l20 70h-30z" />
    <glyph glyph-name="Eng" unicode="&#x14a;" horiz-adv-x="640" 
d="M530 680h40v-840h-220v40h180v120l-404 586h-16v-586h-40v680h40l404 -586h16v586z" />
    <glyph glyph-name="Ntilde" unicode="&#xd1;" horiz-adv-x="640" 
d="M243 900c-33 0 -60 -20 -60 -100h-40c0 50 14 140 100 140c81 0 98 -100 154 -100c33 0 60 20 60 100h40c0 -50 -14 -140 -100 -140c-81 0 -98 100 -154 100zM530 680h40v-680h-40l-404 586h-16v-586h-40v680h40l404 -586h16v586z" />
    <glyph glyph-name="O" unicode="O" horiz-adv-x="764" 
d="M382 0c-208 0 -332 150 -332 340s124 340 332 340s332 -150 332 -340s-124 -340 -332 -340zM382 40c167 0 292 102 292 300s-125 300 -292 300c-169 0 -292 -102 -292 -300s123 -300 292 -300z" />
    <glyph glyph-name="Oacute" unicode="&#xd3;" horiz-adv-x="764" 
d="M453 940h47l-91 -150h-47zM382 0c-208 0 -332 150 -332 340s124 340 332 340s332 -150 332 -340s-124 -340 -332 -340zM382 40c167 0 292 102 292 300s-125 300 -292 300c-169 0 -292 -102 -292 -300s123 -300 292 -300z" />
    <glyph glyph-name="Ocircumflex" unicode="&#xd4;" horiz-adv-x="764" 
d="M379 906l-92 -126h-50l125 170h40l125 -170h-50l-92 126h-6zM382 680c208 0 332 -150 332 -340s-124 -340 -332 -340s-332 150 -332 340s124 340 332 340zM382 40c167 0 292 102 292 300s-125 300 -292 300c-169 0 -292 -102 -292 -300s123 -300 292 -300z" />
    <glyph glyph-name="Odieresis" unicode="&#xd6;" horiz-adv-x="764" 
d="M282 880h60v-60h-60v60zM422 880h60v-60h-60v60zM382 0c-208 0 -332 150 -332 340s124 340 332 340s332 -150 332 -340s-124 -340 -332 -340zM382 40c167 0 292 102 292 300s-125 300 -292 300c-169 0 -292 -102 -292 -300s123 -300 292 -300z" />
    <glyph glyph-name="Ograve" unicode="&#xd2;" horiz-adv-x="764" 
d="M314 940l91 -150h-47l-91 150h47zM382 0c-208 0 -332 150 -332 340s124 340 332 340s332 -150 332 -340s-124 -340 -332 -340zM382 40c167 0 292 102 292 300s-125 300 -292 300c-169 0 -292 -102 -292 -300s123 -300 292 -300z" />
    <glyph glyph-name="Ohungarumlaut" unicode="&#x150;" horiz-adv-x="764" 
d="M383 940h47l-91 -150h-47zM523 940h47l-91 -150h-47zM382 0c-208 0 -332 150 -332 340s124 340 332 340s332 -150 332 -340s-124 -340 -332 -340zM382 40c167 0 292 102 292 300s-125 300 -292 300c-169 0 -292 -102 -292 -300s123 -300 292 -300z" />
    <glyph glyph-name="Omacron" unicode="&#x14c;" horiz-adv-x="764" 
d="M226 840v40h312v-40h-312zM382 0c-208 0 -332 150 -332 340s124 340 332 340s332 -150 332 -340s-124 -340 -332 -340zM382 40c167 0 292 102 292 300s-125 300 -292 300c-169 0 -292 -102 -292 -300s123 -300 292 -300z" />
    <glyph glyph-name="Oslash" unicode="&#xd8;" horiz-adv-x="784" 
d="M724 652l-79 -81c51 -60 79 -141 79 -231c0 -190 -124 -340 -332 -340c-93 0 -170 30 -225 81l-79 -81l-28 28l79 81c-51 60 -79 141 -79 231c0 190 124 340 332 340c93 0 170 -30 225 -81l79 81zM100 340c0 -87 24 -155 65 -205l426 438c-51 44 -120 67 -199 67
c-169 0 -292 -102 -292 -300zM684 340c0 87 -24 155 -65 204l-427 -437c51 -44 121 -67 200 -67c167 0 292 102 292 300z" />
    <glyph glyph-name="Otilde" unicode="&#xd5;" horiz-adv-x="764" 
d="M205 800c0 50 14 140 100 140c81 0 98 -100 154 -100c33 0 60 20 60 100h40c0 -50 -14 -140 -100 -140c-81 0 -98 100 -154 100c-33 0 -60 -20 -60 -100h-40zM382 0c-208 0 -332 150 -332 340s124 340 332 340s332 -150 332 -340s-124 -340 -332 -340zM382 40
c167 0 292 102 292 300s-125 300 -292 300c-169 0 -292 -102 -292 -300s123 -300 292 -300z" />
    <glyph glyph-name="OE" unicode="&#x152;" horiz-adv-x="1162" 
d="M1112 640h-398v-270h308v-40h-308v-290h398v-40h-438v167c-52 -100 -153 -167 -292 -167c-208 0 -332 150 -332 340s124 340 332 340c139 0 240 -67 292 -167v167h438v-40zM382 40c167 0 292 102 292 300s-125 300 -292 300c-169 0 -292 -102 -292 -300
s123 -300 292 -300z" />
    <glyph glyph-name="P" unicode="P" horiz-adv-x="629" 
d="M304 680c216 0 265 -95 265 -238s-49 -239 -265 -239h-194v-203h-40v680h234zM304 243c136 0 225 29 225 199c0 173 -89 198 -225 198h-194v-397h194z" />
    <glyph glyph-name="Thorn" unicode="&#xde;" horiz-adv-x="629" 
d="M304 590c216 0 265 -95 265 -238s-49 -239 -265 -239h-194v-113h-40v680h40v-90h194zM304 153c136 0 225 29 225 199c0 173 -89 198 -225 198h-194v-397h194z" />
    <glyph glyph-name="Q" unicode="Q" horiz-adv-x="774" 
d="M714 340c0 -97 -32 -184 -92 -246l92 -115l-32 -24l-90 113c-54 -43 -125 -68 -210 -68c-208 0 -332 150 -332 340s124 340 332 340s332 -150 332 -340zM382 40c72 0 137 19 187 57l-91 114l32 24l89 -111c47 50 75 122 75 216c0 198 -125 300 -292 300
c-169 0 -292 -102 -292 -300s123 -300 292 -300z" />
    <glyph glyph-name="R" unicode="R" horiz-adv-x="619" 
d="M450 294v-16h109v-278h-40v253h-409v-253h-40v680h224c216 0 265 -95 265 -218c0 -105 -59 -151 -109 -168zM110 293h184c146 0 225 29 225 169c0 153 -89 178 -225 178h-184v-347z" />
    <glyph glyph-name="Racute" unicode="&#x154;" horiz-adv-x="619" 
d="M433 940l-91 -150h-47l91 150h47zM450 294v-16h109v-278h-40v253h-409v-253h-40v680h224c216 0 265 -95 265 -218c0 -105 -59 -151 -109 -168zM110 293h184c146 0 225 29 225 169c0 153 -89 178 -225 178h-184v-347z" />
    <glyph glyph-name="Rcaron" unicode="&#x158;" horiz-adv-x="619" 
d="M295 790l-125 170h50l92 -126h6l92 126h50l-125 -170h-40zM450 294v-16h109v-278h-40v253h-409v-253h-40v680h224c216 0 265 -95 265 -218c0 -105 -59 -151 -109 -168zM110 293h184c146 0 225 29 225 169c0 153 -89 178 -225 178h-184v-347z" />
    <glyph glyph-name="Rcommaaccent" unicode="&#x156;" horiz-adv-x="619" 
d="M450 294v-16h109v-278h-40v253h-409v-253h-40v680h224c216 0 265 -95 265 -218c0 -105 -59 -151 -109 -168zM110 293h184c146 0 225 29 225 169c0 153 -89 178 -225 178h-184v-347zM288 -100v60h60v-60l-29 -70h-21l20 70h-30z" />
    <glyph glyph-name="S" unicode="S" horiz-adv-x="616" 
d="M60 83v45c64 -48 173 -88 270 -88c91 0 186 23 186 125c0 99 -103 136 -209 170c-176 57 -225 95 -225 188c0 98 80 157 212 157c82 0 157 -20 225 -54v-42c-85 39 -144 56 -238 56c-93 0 -159 -41 -159 -120c0 -82 76 -106 192 -145c183 -62 242 -109 242 -212
s-81 -163 -226 -163c-94 0 -207 35 -270 83z" />
    <glyph glyph-name="Sacute" unicode="&#x15a;" horiz-adv-x="616" 
d="M398 940h47l-91 -150h-47zM60 83v45c64 -48 173 -88 270 -88c91 0 186 23 186 125c0 99 -103 136 -209 170c-176 57 -225 95 -225 188c0 98 80 157 212 157c82 0 157 -20 225 -54v-42c-85 39 -144 56 -238 56c-93 0 -159 -41 -159 -120c0 -82 76 -106 192 -145
c183 -62 242 -109 242 -212s-81 -163 -226 -163c-94 0 -207 35 -270 83z" />
    <glyph glyph-name="Scaron" unicode="&#x160;" horiz-adv-x="616" 
d="M307 790l-125 170h50l92 -126h6l92 126h50l-125 -170h-40zM314 375c183 -62 242 -109 242 -212s-81 -163 -226 -163c-94 0 -207 35 -270 83v45c64 -48 173 -88 270 -88c91 0 186 23 186 125c0 99 -103 136 -209 170c-176 57 -225 95 -225 188c0 98 80 157 212 157
c82 0 157 -20 225 -54v-42c-85 39 -144 56 -238 56c-93 0 -159 -41 -159 -120c0 -82 76 -106 192 -145z" />
    <glyph glyph-name="Scedilla" unicode="&#x15e;" horiz-adv-x="616" 
d="M556 163c0 -100 -77 -160 -215 -163l-13 -20c80 0 68 -140 -78 -140v40c107 0 117 90 33 90l19 31c-87 6 -185 39 -242 82v45c64 -48 173 -88 270 -88c91 0 186 23 186 125c0 99 -103 136 -209 170c-176 57 -225 95 -225 188c0 98 80 157 212 157c82 0 157 -20 225 -54
v-42c-85 39 -144 56 -238 56c-93 0 -159 -41 -159 -120c0 -82 76 -106 192 -145c183 -62 242 -109 242 -212z" />
    <glyph glyph-name="Scommaaccent" unicode="&#x218;" horiz-adv-x="616" 
d="M60 83v45c64 -48 173 -88 270 -88c91 0 186 23 186 125c0 99 -103 136 -209 170c-176 57 -225 95 -225 188c0 98 80 157 212 157c82 0 157 -20 225 -54v-42c-85 39 -144 56 -238 56c-93 0 -159 -41 -159 -120c0 -82 76 -106 192 -145c183 -62 242 -109 242 -212
s-81 -163 -226 -163c-94 0 -207 35 -270 83zM297 -40h60v-60l-29 -70h-21l20 70h-30v60z" />
    <glyph glyph-name="T" unicode="T" horiz-adv-x="638" 
d="M578 680v-40h-239v-640h-40v640h-239v40h518z" />
    <glyph glyph-name="Tbar" unicode="&#x166;" horiz-adv-x="638" 
d="M578 640h-239v-280h136v-40h-136v-320h-40v320h-136v40h136v280h-239v40h518v-40z" />
    <glyph glyph-name="Tcaron" unicode="&#x164;" horiz-adv-x="638" 
d="M299 790l-125 170h50l92 -126h6l92 126h50l-125 -170h-40zM578 680v-40h-239v-640h-40v640h-239v40h518z" />
    <glyph glyph-name="uni0162" unicode="&#x162;" horiz-adv-x="638" 
d="M339 0h-6l-13 -20c80 0 68 -140 -78 -140v40c107 0 117 90 33 90l24 38v632h-239v40h518v-40h-239v-640z" />
    <glyph glyph-name="uni021A" unicode="&#x21a;" horiz-adv-x="638" 
d="M578 680v-40h-239v-640h-40v640h-239v40h518zM289 -100v60h60v-60l-29 -70h-21l20 70h-30z" />
    <glyph glyph-name="U" unicode="U" horiz-adv-x="608" 
d="M548 240c0 -157 -67 -240 -244 -240s-244 83 -244 240v440h40v-440c0 -151 66 -200 204 -200s204 49 204 200v440h40v-440z" />
    <glyph glyph-name="Uacute" unicode="&#xda;" horiz-adv-x="608" 
d="M375 940h47l-91 -150h-47zM548 240c0 -157 -67 -240 -244 -240s-244 83 -244 240v440h40v-440c0 -151 66 -200 204 -200s204 49 204 200v440h40v-440z" />
    <glyph glyph-name="Ucircumflex" unicode="&#xdb;" horiz-adv-x="608" 
d="M301 906l-92 -126h-50l125 170h40l125 -170h-50l-92 126h-6zM508 680h40v-440c0 -157 -67 -240 -244 -240s-244 83 -244 240v440h40v-440c0 -151 66 -200 204 -200s204 49 204 200v440z" />
    <glyph glyph-name="Udieresis" unicode="&#xdc;" horiz-adv-x="608" 
d="M204 880h60v-60h-60v60zM344 880h60v-60h-60v60zM548 240c0 -157 -67 -240 -244 -240s-244 83 -244 240v440h40v-440c0 -151 66 -200 204 -200s204 49 204 200v440h40v-440z" />
    <glyph glyph-name="Ugrave" unicode="&#xd9;" horiz-adv-x="608" 
d="M236 940l91 -150h-47l-91 150h47zM548 240c0 -157 -67 -240 -244 -240s-244 83 -244 240v440h40v-440c0 -151 66 -200 204 -200s204 49 204 200v440h40v-440z" />
    <glyph glyph-name="Uhungarumlaut" unicode="&#x170;" horiz-adv-x="608" 
d="M305 940h47l-91 -150h-47zM445 940h47l-91 -150h-47zM548 240c0 -157 -67 -240 -244 -240s-244 83 -244 240v440h40v-440c0 -151 66 -200 204 -200s204 49 204 200v440h40v-440z" />
    <glyph glyph-name="Umacron" unicode="&#x16a;" horiz-adv-x="608" 
d="M148 840v40h312v-40h-312zM548 240c0 -157 -67 -240 -244 -240s-244 83 -244 240v440h40v-440c0 -151 66 -200 204 -200s204 49 204 200v440h40v-440z" />
    <glyph glyph-name="Uogonek" unicode="&#x172;" horiz-adv-x="608" 
d="M508 680h40v-440c0 -125 -43 -204 -150 -230h2c-43 -52 -63 -150 88 -130v-40c-167 -19 -187 100 -135 162c-15 -1 -32 -2 -49 -2c-177 0 -244 83 -244 240v440h40v-440c0 -151 66 -200 204 -200s204 49 204 200v440z" />
    <glyph glyph-name="Uring" unicode="&#x16e;" horiz-adv-x="608" 
d="M304 770c-73 0 -120 57 -120 120s47 120 120 120c72 0 120 -57 120 -120s-48 -120 -120 -120zM304 810c33 0 80 18 80 80s-47 80 -80 80s-80 -18 -80 -80s47 -80 80 -80zM548 240c0 -157 -67 -240 -244 -240s-244 83 -244 240v440h40v-440c0 -151 66 -200 204 -200
s204 49 204 200v440h40v-440z" />
    <glyph glyph-name="V" unicode="V" horiz-adv-x="646" 
d="M92 680l213 -632h16l213 632h42l-229 -680h-68l-229 680h42z" />
    <glyph glyph-name="W" unicode="W" horiz-adv-x="1144" 
d="M1042 680h42l-231 -680h-68l-205 632h-16l-205 -632h-68l-231 680h42l215 -632h16l204 632h70l204 -632h16z" />
    <glyph glyph-name="Wacute" unicode="&#x1e82;" horiz-adv-x="1144" 
d="M690 940l-91 -150h-47l91 150h47zM1042 680h42l-231 -680h-68l-205 632h-16l-205 -632h-68l-231 680h42l215 -632h16l204 632h70l204 -632h16z" />
    <glyph glyph-name="Wcircumflex" unicode="&#x174;" horiz-adv-x="1144" 
d="M569 906l-92 -126h-50l125 170h40l125 -170h-50l-92 126h-6zM1042 680h42l-231 -680h-68l-205 632h-16l-205 -632h-68l-231 680h42l215 -632h16l204 632h70l204 -632h16z" />
    <glyph glyph-name="Wdieresis" unicode="&#x1e84;" horiz-adv-x="1144" 
d="M532 880v-60h-60v60h60zM672 880v-60h-60v60h60zM1042 680h42l-231 -680h-68l-205 632h-16l-205 -632h-68l-231 680h42l215 -632h16l204 632h70l204 -632h16z" />
    <glyph glyph-name="Wgrave" unicode="&#x1e80;" horiz-adv-x="1144" 
d="M595 790h-47l-91 150h47zM1042 680h42l-231 -680h-68l-205 632h-16l-205 -632h-68l-231 680h42l215 -632h16l204 632h70l204 -632h16z" />
    <glyph glyph-name="X" unicode="X" horiz-adv-x="678" 
d="M618 680l-252 -340l252 -340h-50l-226 305h-6l-226 -305h-50l252 340l-252 340h50l226 -305h6l226 305h50z" />
    <glyph glyph-name="Y" unicode="Y" horiz-adv-x="678" 
d="M571 680h47l-259 -399v-281h-40v281l-259 399h47l229 -352h6z" />
    <glyph glyph-name="Yacute" unicode="&#xdd;" horiz-adv-x="678" 
d="M410 940h47l-91 -150h-47zM571 680h47l-259 -399v-281h-40v281l-259 399h47l229 -352h6z" />
    <glyph glyph-name="Ycircumflex" unicode="&#x176;" horiz-adv-x="678" 
d="M336 906l-92 -126h-50l125 170h40l125 -170h-50l-92 126h-6zM571 680h47l-259 -399v-281h-40v281l-259 399h47l229 -352h6z" />
    <glyph glyph-name="Ydieresis" unicode="&#x178;" horiz-adv-x="678" 
d="M239 880h60v-60h-60v60zM379 880h60v-60h-60v60zM571 680h47l-259 -399v-281h-40v281l-259 399h47l229 -352h6z" />
    <glyph glyph-name="Ygrave" unicode="&#x1ef2;" horiz-adv-x="678" 
d="M271 940l91 -150h-47l-91 150h47zM571 680h47l-259 -399v-281h-40v281l-259 399h47l229 -352h6z" />
    <glyph glyph-name="Z" unicode="Z" horiz-adv-x="645" 
d="M585 680v-40l-474 -600h474v-40h-525v40l474 600h-474v40h525z" />
    <glyph glyph-name="Zacute" unicode="&#x179;" horiz-adv-x="645" 
d="M441 940l-91 -150h-47l91 150h47zM585 680v-40l-474 -600h474v-40h-525v40l474 600h-474v40h525z" />
    <glyph glyph-name="Zcaron" unicode="&#x17d;" horiz-adv-x="645" 
d="M303 790l-125 170h50l92 -126h6l92 126h50l-125 -170h-40zM585 680v-40l-474 -600h474v-40h-525v40l474 600h-474v40h525z" />
    <glyph glyph-name="Zdotaccent" unicode="&#x17b;" horiz-adv-x="645" 
d="M353 880v-60h-60v60h60zM585 680v-40l-474 -600h474v-40h-525v40l474 600h-474v40h525z" />
    <glyph glyph-name="A.ss01" horiz-adv-x="646" 
d="M567 27l9 -27h-526l229 680h68l216 -640h4v-13zM105 40h416l-200 592h-16z" />
    <glyph glyph-name="S.ss01" horiz-adv-x="616" 
d="M556 640h-434v-264h434v-376h-496v40h456v296h-434v344h474v-40z" />
    <glyph glyph-name="U.ss01" horiz-adv-x="608" 
d="M548 0h-488v680h40v-640h408v640h40v-680z" />
    <glyph glyph-name="a" unicode="a" horiz-adv-x="588" 
d="M448 40h80v-40h-120v80c-20 -43 -84 -80 -164 -80c-132 0 -194 78 -194 175s62 175 194 175c80 0 144 -37 164 -80v190h-290v40h330v-460zM244 40c93 0 164 45 164 135s-71 135 -164 135s-154 -45 -154 -135s61 -135 154 -135z" />
    <glyph glyph-name="aacute" unicode="&#xe1;" horiz-adv-x="588" 
d="M402 760l-91 -150h-47l91 150h47zM448 40h80v-40h-120v80c-20 -43 -84 -80 -164 -80c-132 0 -194 78 -194 175s62 175 194 175c80 0 144 -37 164 -80v190h-290v40h330v-460zM244 40c93 0 164 45 164 135s-71 135 -164 135s-154 -45 -154 -135s61 -135 154 -135z" />
    <glyph glyph-name="abreve" unicode="&#x103;" horiz-adv-x="588" 
d="M284 600c-75 0 -135 30 -135 150h40c0 -100 47 -110 95 -110s95 10 95 110h40c0 -118 -60 -150 -135 -150zM448 40h80v-40h-120v80c-20 -43 -84 -80 -164 -80c-132 0 -194 78 -194 175s62 175 194 175c80 0 144 -37 164 -80v190h-290v40h330v-460zM244 40
c93 0 164 45 164 135s-71 135 -164 135s-154 -45 -154 -135s61 -135 154 -135z" />
    <glyph glyph-name="acircumflex" unicode="&#xe2;" horiz-adv-x="588" 
d="M281 726l-92 -126h-50l125 170h40l125 -170h-50l-92 126h-6zM448 40h80v-40h-120v80c-20 -43 -84 -80 -164 -80c-132 0 -194 78 -194 175s62 175 194 175c80 0 144 -37 164 -80v190h-290v40h330v-460zM244 40c93 0 164 45 164 135s-71 135 -164 135s-154 -45 -154 -135
s61 -135 154 -135z" />
    <glyph glyph-name="adieresis" unicode="&#xe4;" horiz-adv-x="588" 
d="M244 700v-60h-60v60h60zM384 700v-60h-60v60h60zM448 40h80v-40h-120v80c-20 -43 -84 -80 -164 -80c-132 0 -194 78 -194 175s62 175 194 175c80 0 144 -37 164 -80v190h-290v40h330v-460zM244 40c93 0 164 45 164 135s-71 135 -164 135s-154 -45 -154 -135
s61 -135 154 -135z" />
    <glyph glyph-name="agrave" unicode="&#xe0;" horiz-adv-x="588" 
d="M307 610h-47l-91 150h47zM448 40h80v-40h-120v80c-20 -43 -84 -80 -164 -80c-132 0 -194 78 -194 175s62 175 194 175c80 0 144 -37 164 -80v190h-290v40h330v-460zM244 40c93 0 164 45 164 135s-71 135 -164 135s-154 -45 -154 -135s61 -135 154 -135z" />
    <glyph glyph-name="amacron" unicode="&#x101;" horiz-adv-x="588" 
d="M440 700v-40h-312v40h312zM448 40h80v-40h-120v80c-20 -43 -84 -80 -164 -80c-132 0 -194 78 -194 175s62 175 194 175c80 0 144 -37 164 -80v190h-290v40h330v-460zM244 40c93 0 164 45 164 135s-71 135 -164 135s-154 -45 -154 -135s61 -135 154 -135z" />
    <glyph glyph-name="aogonek" unicode="&#x105;" horiz-adv-x="588" 
d="M528 0c-43 -52 -63 -150 88 -130v-40c-174 -20 -189 111 -128 170h-80v80c-20 -43 -84 -80 -164 -80c-132 0 -194 78 -194 175s62 175 194 175c80 0 144 -37 164 -80v190h-290v40h330v-460h80v-40zM244 40c93 0 164 45 164 135s-71 135 -164 135s-154 -45 -154 -135
s61 -135 154 -135z" />
    <glyph glyph-name="aring" unicode="&#xe5;" horiz-adv-x="588" 
d="M284 590c-73 0 -120 57 -120 120s47 120 120 120c72 0 120 -57 120 -120s-48 -120 -120 -120zM284 790c-33 0 -80 -18 -80 -80s47 -80 80 -80s80 18 80 80s-47 80 -80 80zM448 40h80v-40h-120v80c-20 -43 -84 -80 -164 -80c-132 0 -194 78 -194 175s62 175 194 175
c80 0 144 -37 164 -80v190h-290v40h330v-460zM244 40c93 0 164 45 164 135s-71 135 -164 135s-154 -45 -154 -135s61 -135 154 -135z" />
    <glyph glyph-name="atilde" unicode="&#xe3;" horiz-adv-x="588" 
d="M207 720c-33 0 -60 -20 -60 -100h-40c0 50 14 140 100 140c81 0 98 -100 154 -100c33 0 60 20 60 100h40c0 -50 -14 -140 -100 -140c-81 0 -98 100 -154 100zM448 40h80v-40h-120v80c-20 -43 -84 -80 -164 -80c-132 0 -194 78 -194 175s62 175 194 175
c80 0 144 -37 164 -80v190h-290v40h330v-460zM244 40c93 0 164 45 164 135s-71 135 -164 135s-154 -45 -154 -135s61 -135 154 -135z" />
    <glyph glyph-name="ae" unicode="&#xe6;" horiz-adv-x="910" 
d="M850 260v-30h-391c3 -83 30 -190 213 -190c40 0 79 2 144 20v-40c-78 -20 -106 -20 -144 -20c-133 0 -198 52 -228 116c-21 -85 -102 -116 -185 -116c-142 0 -199 78 -199 175s57 175 199 175c73 0 129 -23 153 -60l-19 170h-265v40h300l14 -117c30 72 91 117 192 117
c154 0 216 -93 216 -240zM458 270h352c0 160 -93 190 -176 190s-176 -40 -176 -190zM259 40c103 0 159 45 159 135s-56 135 -159 135s-159 -45 -159 -135s56 -135 159 -135z" />
    <glyph glyph-name="b" unicode="b" horiz-adv-x="588" 
d="M304 500c167 0 234 -123 234 -250s-67 -250 -234 -250c-55 0 -154 27 -194 110v-110h-40v700h40v-310c40 83 139 110 194 110zM304 40c98 0 194 55 194 210s-96 210 -194 210c-88 0 -194 -60 -194 -210s106 -210 194 -210z" />
    <glyph glyph-name="c" unicode="c" horiz-adv-x="542" 
d="M50 250c0 147 77 250 227 250c118 0 205 -81 205 -190h-40c-4 102 -85 150 -165 150c-91 0 -187 -45 -187 -210s96 -210 187 -210c80 0 161 48 165 150h40c0 -109 -87 -190 -205 -190c-150 0 -227 103 -227 250z" />
    <glyph glyph-name="cacute" unicode="&#x107;" horiz-adv-x="542" 
d="M337 760h47l-91 -150h-47zM50 250c0 147 77 250 227 250c118 0 205 -81 205 -190h-40c-4 102 -85 150 -165 150c-91 0 -187 -45 -187 -210s96 -210 187 -210c80 0 161 48 165 150h40c0 -109 -87 -190 -205 -190c-150 0 -227 103 -227 250z" />
    <glyph glyph-name="ccaron" unicode="&#x10d;" horiz-adv-x="542" 
d="M246 610l-125 170h50l92 -126h6l92 126h50l-125 -170h-40zM277 40c80 0 161 48 165 150h40c0 -109 -87 -190 -205 -190c-150 0 -227 103 -227 250s77 250 227 250c118 0 205 -81 205 -190h-40c-4 102 -85 150 -165 150c-91 0 -187 -45 -187 -210s96 -210 187 -210z" />
    <glyph glyph-name="ccedilla" unicode="&#xe7;" horiz-adv-x="542" 
d="M277 40c80 0 161 48 165 150h40c0 -108 -86 -189 -202 -190l-13 -20c80 0 68 -140 -78 -140v40c107 0 117 90 33 90l20 32c-127 15 -192 113 -192 248c0 147 77 250 227 250c118 0 205 -81 205 -190h-40c-4 102 -85 150 -165 150c-91 0 -187 -45 -187 -210
s96 -210 187 -210z" />
    <glyph glyph-name="cdotaccent" unicode="&#x10b;" horiz-adv-x="542" 
d="M236 700h60v-60h-60v60zM50 250c0 147 77 250 227 250c118 0 205 -81 205 -190h-40c-4 102 -85 150 -165 150c-91 0 -187 -45 -187 -210s96 -210 187 -210c80 0 161 48 165 150h40c0 -109 -87 -190 -205 -190c-150 0 -227 103 -227 250z" />
    <glyph glyph-name="d" unicode="d" horiz-adv-x="588" 
d="M478 700h40v-700h-40v110c-40 -83 -139 -110 -194 -110c-167 0 -234 123 -234 250s67 250 234 250c55 0 154 -27 194 -110v310zM284 40c88 0 194 60 194 210s-106 210 -194 210c-98 0 -194 -55 -194 -210s96 -210 194 -210z" />
    <glyph glyph-name="eth" unicode="&#xf0;" horiz-adv-x="608" 
d="M400 586c94 -82 148 -193 148 -336c0 -180 -118 -250 -249 -250c-111 0 -239 60 -239 220c0 154 105 224 239 224c67 0 145 -21 193 -75c-23 85 -69 152 -137 204l-158 -45l-30 33l145 42c-36 22 -76 42 -121 59l13 38c59 -23 112 -50 158 -83l156 45l30 -33zM299 40
c121 0 209 68 209 200c0 128 -132 164 -209 164c-96 0 -199 -41 -199 -184c0 -120 88 -180 199 -180z" />
    <glyph glyph-name="dcaron" unicode="&#x10f;" horiz-adv-x="756" 
d="M478 700h40v-700h-40v110c-40 -83 -139 -110 -194 -110c-167 0 -234 123 -234 250s67 250 234 250c55 0 154 -27 194 -110v310zM596 700h60v-60l-30 -80h-30l19 80h-19v60zM284 40c88 0 194 60 194 210s-106 210 -194 210c-98 0 -194 -55 -194 -210s96 -210 194 -210z
" />
    <glyph glyph-name="dcroat" unicode="&#x111;" horiz-adv-x="648" 
d="M588 620v-40h-70v-580h-40v110c-40 -83 -139 -110 -194 -110c-167 0 -234 123 -234 250s67 250 234 250c55 0 154 -27 194 -110v190h-202v40h202v80h40v-80h70zM284 40c88 0 194 60 194 210s-106 210 -194 210c-98 0 -194 -55 -194 -210s96 -210 194 -210z" />
    <glyph glyph-name="e" unicode="e" horiz-adv-x="542" 
d="M482 260v-30h-391c3 -83 30 -190 213 -190c40 0 79 2 144 20v-40c-78 -20 -106 -20 -144 -20c-226 0 -254 151 -254 250c0 144 62 250 216 250s216 -93 216 -240zM90 270h352c0 160 -93 190 -176 190s-176 -40 -176 -190z" />
    <glyph glyph-name="eacute" unicode="&#xe9;" horiz-adv-x="542" 
d="M384 760l-91 -150h-47l91 150h47zM482 260v-30h-391c3 -83 30 -190 213 -190c40 0 79 2 144 20v-40c-78 -20 -106 -20 -144 -20c-226 0 -254 151 -254 250c0 144 62 250 216 250s216 -93 216 -240zM90 270h352c0 160 -93 190 -176 190s-176 -40 -176 -190z" />
    <glyph glyph-name="ecaron" unicode="&#x11b;" horiz-adv-x="542" 
d="M246 610l-125 170h50l92 -126h6l92 126h50l-125 -170h-40zM482 260v-30h-391c3 -83 30 -190 213 -190c40 0 79 2 144 20v-40c-78 -20 -106 -20 -144 -20c-226 0 -254 151 -254 250c0 144 62 250 216 250s216 -93 216 -240zM90 270h352c0 160 -93 190 -176 190
s-176 -40 -176 -190z" />
    <glyph glyph-name="ecircumflex" unicode="&#xea;" horiz-adv-x="542" 
d="M263 726l-92 -126h-50l125 170h40l125 -170h-50l-92 126h-6zM482 260v-30h-391c3 -83 30 -190 213 -190c40 0 79 2 144 20v-40c-78 -20 -106 -20 -144 -20c-226 0 -254 151 -254 250c0 144 62 250 216 250s216 -93 216 -240zM90 270h352c0 160 -93 190 -176 190
s-176 -40 -176 -190z" />
    <glyph glyph-name="edieresis" unicode="&#xeb;" horiz-adv-x="542" 
d="M226 700v-60h-60v60h60zM366 700v-60h-60v60h60zM482 260v-30h-391c3 -83 30 -190 213 -190c40 0 79 2 144 20v-40c-78 -20 -106 -20 -144 -20c-226 0 -254 151 -254 250c0 144 62 250 216 250s216 -93 216 -240zM90 270h352c0 160 -93 190 -176 190s-176 -40 -176 -190z
" />
    <glyph glyph-name="edotaccent" unicode="&#x117;" horiz-adv-x="542" 
d="M296 700v-60h-60v60h60zM482 260v-30h-391c3 -83 30 -190 213 -190c40 0 79 2 144 20v-40c-78 -20 -106 -20 -144 -20c-226 0 -254 151 -254 250c0 144 62 250 216 250s216 -93 216 -240zM90 270h352c0 160 -93 190 -176 190s-176 -40 -176 -190z" />
    <glyph glyph-name="egrave" unicode="&#xe8;" horiz-adv-x="542" 
d="M289 610h-47l-91 150h47zM482 260v-30h-391c3 -83 30 -190 213 -190c40 0 79 2 144 20v-40c-78 -20 -106 -20 -144 -20c-226 0 -254 151 -254 250c0 144 62 250 216 250s216 -93 216 -240zM90 270h352c0 160 -93 190 -176 190s-176 -40 -176 -190z" />
    <glyph glyph-name="emacron" unicode="&#x113;" horiz-adv-x="542" 
d="M422 700v-40h-312v40h312zM482 260v-30h-391c3 -83 30 -190 213 -190c40 0 79 2 144 20v-40c-78 -20 -106 -20 -144 -20c-226 0 -254 151 -254 250c0 144 62 250 216 250s216 -93 216 -240zM90 270h352c0 160 -93 190 -176 190s-176 -40 -176 -190z" />
    <glyph glyph-name="eogonek" unicode="&#x119;" horiz-adv-x="542" 
d="M435 17c-41 -53 -57 -147 91 -127v-40c-161 -19 -186 93 -140 156c-35 -6 -56 -6 -82 -6c-226 0 -254 151 -254 250c0 144 62 250 216 250s216 -93 216 -240v-30h-391c3 -83 30 -190 213 -190c40 0 79 2 144 20v-40zM266 460c-83 0 -176 -40 -176 -190h352
c0 160 -93 190 -176 190z" />
    <glyph glyph-name="f" unicode="f" horiz-adv-x="422" 
d="M362 660h-172v-160h172v-40h-172v-460h-40v460h-100v40h100v200h212v-40z" />
    <glyph glyph-name="g" unicode="g" horiz-adv-x="578" 
d="M468 500h40v-660h-380v40h340v260c-30 -73 -129 -100 -186 -100c-165 0 -232 103 -232 230s67 230 232 230c57 0 156 -27 186 -100v100zM282 80c70 0 186 30 186 190s-116 190 -186 190c-86 0 -192 -33 -192 -190s106 -190 192 -190z" />
    <glyph glyph-name="gbreve" unicode="&#x11f;" horiz-adv-x="578" 
d="M274 600c-75 0 -135 30 -135 150h40c0 -100 47 -110 95 -110s95 10 95 110h40c0 -118 -60 -150 -135 -150zM468 500h40v-660h-380v40h340v260c-30 -73 -129 -100 -186 -100c-165 0 -232 103 -232 230s67 230 232 230c57 0 156 -27 186 -100v100zM282 80
c70 0 186 30 186 190s-116 190 -186 190c-86 0 -192 -33 -192 -190s106 -190 192 -190z" />
    <glyph glyph-name="gcommaaccent" unicode="&#x123;" horiz-adv-x="578" 
d="M304 660v-60h-60v60l30 80h30l-19 -80h19zM468 500h40v-660h-380v40h340v260c-30 -73 -129 -100 -186 -100c-165 0 -232 103 -232 230s67 230 232 230c57 0 156 -27 186 -100v100zM282 80c70 0 186 30 186 190s-116 190 -186 190c-86 0 -192 -33 -192 -190
s106 -190 192 -190z" />
    <glyph glyph-name="gdotaccent" unicode="&#x121;" horiz-adv-x="578" 
d="M304 700v-60h-60v60h60zM468 500h40v-660h-380v40h340v260c-30 -73 -129 -100 -186 -100c-165 0 -232 103 -232 230s67 230 232 230c57 0 156 -27 186 -100v100zM282 80c70 0 186 30 186 190s-116 190 -186 190c-86 0 -192 -33 -192 -190s106 -190 192 -190z" />
    <glyph glyph-name="h" unicode="h" horiz-adv-x="560" 
d="M490 500v-500h-40v460h-340v-460h-40v700h40v-200h380z" />
    <glyph glyph-name="hbar" unicode="&#x127;" horiz-adv-x="600" 
d="M550 500v-500h-40v460h-340v-460h-40v580h-70v40h70v80h40v-80h202v-40h-202v-80h380z" />
    <glyph glyph-name="i" unicode="i" 
d="M70 700h40v-100h-40v100zM70 500h40v-500h-40v500z" />
    <glyph glyph-name="dotlessi" unicode="&#x131;" 
d="M70 500h40v-500h-40v500z" />
    <glyph glyph-name="iacute" unicode="&#xed;" 
d="M161 760h47l-91 -150h-47zM70 500h40v-500h-40v500z" />
    <glyph glyph-name="icircumflex" unicode="&#xee;" 
d="M110 770l125 -170h-50l-92 126h-6l-92 -126h-50l125 170h40zM70 0v500h40v-500h-40z" />
    <glyph glyph-name="idieresis" unicode="&#xef;" 
d="M-10 700h60v-60h-60v60zM130 700h60v-60h-60v60zM70 500h40v-500h-40v500z" />
    <glyph glyph-name="i.loclTRK" 
d="M60 700h60v-60h-60v60zM70 500h40v-500h-40v500z" />
    <glyph glyph-name="igrave" unicode="&#xec;" 
d="M22 760l91 -150h-47l-91 150h47zM70 500h40v-500h-40v500z" />
    <glyph glyph-name="imacron" unicode="&#x12b;" 
d="M-66 660v40h312v-40h-312zM70 500h40v-500h-40v500z" />
    <glyph glyph-name="iogonek" unicode="&#x12f;" 
d="M120 700v-60h-60v60h60zM110 0c-43 -52 -63 -150 88 -130v-40c-174 -20 -189 111 -128 170v500h40v-500z" />
    <glyph glyph-name="j" unicode="j" horiz-adv-x="250" 
d="M140 700h40v-100h-40v100zM140 -120v620h40v-660h-170v40h130z" />
    <glyph glyph-name="k" unicode="k" horiz-adv-x="539" 
d="M479 500l-189 -251l189 -249h-49l-176 229h-144v-229h-40v700h40v-431h144l176 231h49z" />
    <glyph glyph-name="kcommaaccent" unicode="&#x137;" horiz-adv-x="539" 
d="M479 500l-189 -251l189 -249h-49l-176 229h-144v-229h-40v700h40v-431h144l176 231h49zM220 -100v60h60v-60l-29 -70h-21l20 70h-30z" />
    <glyph glyph-name="l" unicode="l" 
d="M70 700h40v-700h-40v700z" />
    <glyph glyph-name="lacute" unicode="&#x13a;" 
d="M161 960h47l-91 -150h-47zM70 700h40v-700h-40v700z" />
    <glyph glyph-name="lcaron" unicode="&#x13e;" 
d="M185 980h50l-125 -170h-40l-125 170h50l92 -126h6zM70 0v700h40v-700h-40z" />
    <glyph glyph-name="lcommaaccent" unicode="&#x13c;" 
d="M70 700h40v-700h-40v700zM60 -40h60v-60l-29 -70h-21l20 70h-30v60z" />
    <glyph glyph-name="lslash" unicode="&#x142;" horiz-adv-x="432" 
d="M372 423v-45l-156 -83v-295h-40v273l-116 -62v45l116 62v382h40v-360z" />
    <glyph glyph-name="m" unicode="m" horiz-adv-x="800" 
d="M730 500v-500h-40v460h-270v-460h-40v460h-270v-460h-40v500h660z" />
    <glyph glyph-name="n" unicode="n" horiz-adv-x="550" 
d="M480 500v-500h-40v460h-340v-460h-40v500h420z" />
    <glyph glyph-name="nacute" unicode="&#x144;" horiz-adv-x="550" 
d="M388 760l-91 -150h-47l91 150h47zM480 500v-500h-40v460h-340v-460h-40v500h420z" />
    <glyph glyph-name="ncaron" unicode="&#x148;" horiz-adv-x="550" 
d="M250 610l-125 170h50l92 -126h6l92 126h50l-125 -170h-40zM480 500v-500h-40v460h-340v-460h-40v500h420z" />
    <glyph glyph-name="ncommaaccent" unicode="&#x146;" horiz-adv-x="550" 
d="M480 500v-500h-40v460h-340v-460h-40v500h420zM240 -100v60h60v-60l-29 -70h-21l20 70h-30z" />
    <glyph glyph-name="eng" unicode="&#x14b;" horiz-adv-x="550" 
d="M480 500v-660h-190v40h150v580h-340v-460h-40v500h420z" />
    <glyph glyph-name="ntilde" unicode="&#xf1;" horiz-adv-x="550" 
d="M193 720c-33 0 -60 -20 -60 -100h-40c0 50 14 140 100 140c81 0 98 -100 154 -100c33 0 60 20 60 100h40c0 -50 -14 -140 -100 -140c-81 0 -98 100 -154 100zM480 500v-500h-40v460h-340v-460h-40v500h420z" />
    <glyph glyph-name="o" unicode="o" horiz-adv-x="578" 
d="M289 0c-152 0 -239 103 -239 250s87 250 239 250s239 -103 239 -250s-87 -250 -239 -250zM289 40c133 0 199 88 199 210s-66 210 -199 210s-199 -88 -199 -210s66 -210 199 -210z" />
    <glyph glyph-name="oacute" unicode="&#xf3;" horiz-adv-x="578" 
d="M360 760h47l-91 -150h-47zM289 0c-152 0 -239 103 -239 250s87 250 239 250s239 -103 239 -250s-87 -250 -239 -250zM289 40c133 0 199 88 199 210s-66 210 -199 210s-199 -88 -199 -210s66 -210 199 -210z" />
    <glyph glyph-name="ocircumflex" unicode="&#xf4;" horiz-adv-x="578" 
d="M286 726l-92 -126h-50l125 170h40l125 -170h-50l-92 126h-6zM289 500c152 0 239 -103 239 -250s-87 -250 -239 -250s-239 103 -239 250s87 250 239 250zM289 40c133 0 199 88 199 210s-66 210 -199 210s-199 -88 -199 -210s66 -210 199 -210z" />
    <glyph glyph-name="odieresis" unicode="&#xf6;" horiz-adv-x="578" 
d="M189 700h60v-60h-60v60zM329 700h60v-60h-60v60zM289 0c-152 0 -239 103 -239 250s87 250 239 250s239 -103 239 -250s-87 -250 -239 -250zM289 40c133 0 199 88 199 210s-66 210 -199 210s-199 -88 -199 -210s66 -210 199 -210z" />
    <glyph glyph-name="ograve" unicode="&#xf2;" horiz-adv-x="578" 
d="M221 760l91 -150h-47l-91 150h47zM289 0c-152 0 -239 103 -239 250s87 250 239 250s239 -103 239 -250s-87 -250 -239 -250zM289 40c133 0 199 88 199 210s-66 210 -199 210s-199 -88 -199 -210s66 -210 199 -210z" />
    <glyph glyph-name="ohungarumlaut" unicode="&#x151;" horiz-adv-x="578" 
d="M290 760h47l-91 -150h-47zM430 760h47l-91 -150h-47zM289 0c-152 0 -239 103 -239 250s87 250 239 250s239 -103 239 -250s-87 -250 -239 -250zM289 40c133 0 199 88 199 210s-66 210 -199 210s-199 -88 -199 -210s66 -210 199 -210z" />
    <glyph glyph-name="omacron" unicode="&#x14d;" horiz-adv-x="578" 
d="M133 660v40h312v-40h-312zM289 0c-152 0 -239 103 -239 250s87 250 239 250s239 -103 239 -250s-87 -250 -239 -250zM289 40c133 0 199 88 199 210s-66 210 -199 210s-199 -88 -199 -210s66 -210 199 -210z" />
    <glyph glyph-name="oslash" unicode="&#xf8;" horiz-adv-x="612" 
d="M552 472l-56 -58c32 -42 49 -99 49 -164c0 -147 -87 -250 -239 -250c-67 0 -122 20 -162 55l-54 -55l-30 28l56 58c-32 42 -49 99 -49 164c0 147 87 250 239 250c67 0 122 -20 162 -55l54 55zM107 250c0 -53 13 -100 38 -136l295 302c-33 28 -77 44 -134 44
c-133 0 -199 -88 -199 -210zM505 250c0 53 -13 100 -38 136l-295 -302c33 -28 77 -44 134 -44c133 0 199 88 199 210z" />
    <glyph glyph-name="otilde" unicode="&#xf5;" horiz-adv-x="578" 
d="M112 620c0 50 14 140 100 140c81 0 98 -100 154 -100c33 0 60 20 60 100h40c0 -50 -14 -140 -100 -140c-81 0 -98 100 -154 100c-33 0 -60 -20 -60 -100h-40zM289 0c-152 0 -239 103 -239 250s87 250 239 250s239 -103 239 -250s-87 -250 -239 -250zM289 40
c133 0 199 88 199 210s-66 210 -199 210s-199 -88 -199 -210s66 -210 199 -210z" />
    <glyph glyph-name="oe" unicode="&#x153;" horiz-adv-x="980" 
d="M920 260v-30h-391c3 -83 30 -190 213 -190c40 0 79 2 144 20v-40c-78 -20 -106 -20 -144 -20c-146 0 -209 63 -236 134c-34 -82 -109 -134 -217 -134c-152 0 -239 103 -239 250s87 250 239 250c107 0 182 -51 217 -132c28 80 90 132 198 132c154 0 216 -93 216 -240z
M289 40c133 0 199 88 199 210s-66 210 -199 210s-199 -88 -199 -210s66 -210 199 -210zM528 270h352c0 160 -93 190 -176 190s-176 -40 -176 -190z" />
    <glyph glyph-name="p" unicode="p" horiz-adv-x="588" 
d="M304 500c167 0 234 -123 234 -250s-67 -250 -234 -250c-55 0 -154 27 -194 110v-270h-40v660h40v-110c40 83 139 110 194 110zM304 40c98 0 194 55 194 210s-96 210 -194 210c-88 0 -194 -60 -194 -210s106 -210 194 -210z" />
    <glyph glyph-name="thorn" unicode="&#xfe;" horiz-adv-x="588" 
d="M304 500c167 0 234 -123 234 -250s-67 -250 -234 -250c-55 0 -154 27 -194 110v-270h-40v860h40v-310c40 83 139 110 194 110zM304 40c98 0 194 55 194 210s-96 210 -194 210c-88 0 -194 -60 -194 -210s106 -210 194 -210z" />
    <glyph glyph-name="q" unicode="q" horiz-adv-x="588" 
d="M478 500h40v-660h-40v270c-40 -83 -139 -110 -194 -110c-167 0 -234 123 -234 250s67 250 234 250c55 0 154 -27 194 -110v110zM284 40c88 0 194 60 194 210s-106 210 -194 210c-98 0 -194 -55 -194 -210s96 -210 194 -210z" />
    <glyph glyph-name="r" unicode="r" horiz-adv-x="382" 
d="M332 500v-40h-232v-460h-40v500h272z" />
    <glyph glyph-name="racute" unicode="&#x155;" horiz-adv-x="382" 
d="M314 760l-91 -150h-47l91 150h47zM332 500v-40h-232v-460h-40v500h272z" />
    <glyph glyph-name="rcaron" unicode="&#x159;" horiz-adv-x="382" 
d="M176 610l-125 170h50l92 -126h6l92 126h50l-125 -170h-40zM60 500h272v-40h-232v-460h-40v500z" />
    <glyph glyph-name="rcommaaccent" unicode="&#x157;" horiz-adv-x="382" 
d="M332 500v-40h-232v-460h-40v500h272zM50 -100v60h60v-60l-29 -70h-21l20 70h-30z" />
    <glyph glyph-name="s" unicode="s" horiz-adv-x="496" 
d="M60 54v45c65 -37 125 -59 198 -59c77 0 138 26 138 88c0 68 -51 83 -144 110c-140 41 -176 75 -176 143c0 76 58 119 168 119c57 0 114 -14 169 -39v-45c-60 30 -115 44 -169 44c-79 0 -128 -21 -128 -77c0 -54 37 -75 139 -105c152 -44 181 -85 181 -148
c0 -88 -76 -130 -178 -130c-75 0 -131 17 -198 54z" />
    <glyph glyph-name="sacute" unicode="&#x15b;" horiz-adv-x="496" 
d="M326 760h47l-91 -150h-47zM60 54v45c65 -37 125 -59 198 -59c77 0 138 26 138 88c0 68 -51 83 -144 110c-140 41 -176 75 -176 143c0 76 58 119 168 119c57 0 114 -14 169 -39v-45c-60 30 -115 44 -169 44c-79 0 -128 -21 -128 -77c0 -54 37 -75 139 -105
c152 -44 181 -85 181 -148c0 -88 -76 -130 -178 -130c-75 0 -131 17 -198 54z" />
    <glyph glyph-name="scaron" unicode="&#x161;" horiz-adv-x="496" 
d="M235 610l-125 170h50l92 -126h6l92 126h50l-125 -170h-40zM255 278c152 -44 181 -85 181 -148c0 -88 -76 -130 -178 -130c-75 0 -131 17 -198 54v45c65 -37 125 -59 198 -59c77 0 138 26 138 88c0 68 -51 83 -144 110c-140 41 -176 75 -176 143c0 76 58 119 168 119
c57 0 114 -14 169 -39v-45c-60 30 -115 44 -169 44c-79 0 -128 -21 -128 -77c0 -54 37 -75 139 -105z" />
    <glyph glyph-name="scedilla" unicode="&#x15f;" horiz-adv-x="496" 
d="M258 0h-9l-13 -20c80 0 68 -140 -78 -140v40c107 0 117 90 33 90l20 32c-53 6 -99 23 -151 52v45c65 -37 125 -59 198 -59c77 0 138 26 138 88c0 68 -51 83 -144 110c-140 41 -176 75 -176 143c0 76 58 119 168 119c57 0 114 -14 169 -39v-45c-60 30 -115 44 -169 44
c-79 0 -128 -21 -128 -77c0 -54 37 -75 139 -105c152 -44 181 -85 181 -148c0 -88 -76 -130 -178 -130z" />
    <glyph glyph-name="scommaaccent" unicode="&#x219;" horiz-adv-x="496" 
d="M60 54v45c65 -37 125 -59 198 -59c77 0 138 26 138 88c0 68 -51 83 -144 110c-140 41 -176 75 -176 143c0 76 58 119 168 119c57 0 114 -14 169 -39v-45c-60 30 -115 44 -169 44c-79 0 -128 -21 -128 -77c0 -54 37 -75 139 -105c152 -44 181 -85 181 -148
c0 -88 -76 -130 -178 -130c-75 0 -131 17 -198 54zM205 -40h60v-60l-29 -70h-21l20 70h-30v60z" />
    <glyph glyph-name="germandbls" unicode="&#xdf;" horiz-adv-x="598" 
d="M329 40c114 0 169 50 169 140c0 122 -111 152 -214 152h-64v40h64c103 0 154 55 154 118c0 120 -84 150 -159 150c-73 0 -169 -32 -169 -180v-460h-40v460c0 117 57 220 214 220c137 0 194 -93 194 -180c0 -75 -33 -120 -86 -133v-16c117 -16 146 -108 146 -176
c0 -97 -62 -175 -209 -175c-46 0 -91 10 -117 20v40c26 -10 71 -20 117 -20z" />
    <glyph glyph-name="t" unicode="t" horiz-adv-x="412" 
d="M352 460h-162v-420h162v-40h-202v460h-100v40h100v200h40v-200h162v-40z" />
    <glyph glyph-name="tbar" unicode="&#x167;" horiz-adv-x="412" 
d="M352 460h-162v-190h162v-40h-162v-190h162v-40h-202v230h-110v40h110v190h-100v40h100v200h40v-200h162v-40z" />
    <glyph glyph-name="tcaron" unicode="&#x165;" horiz-adv-x="422" 
d="M302 790h60v-60l-30 -80h-30l19 80h-19v60zM190 700v-200h162v-40h-162v-420h162v-40h-202v460h-100v40h100v200h40z" />
    <glyph glyph-name="uni0163" unicode="&#x163;" horiz-adv-x="412" 
d="M352 460h-162v-420h162v-40h-102l-13 -20c80 0 68 -140 -78 -140v40c107 0 117 90 33 90l19 30h-61v460h-100v40h100v200h40v-200h162v-40z" />
    <glyph glyph-name="uni021B" unicode="&#x21b;" horiz-adv-x="412" 
d="M352 460h-162v-420h162v-40h-202v460h-100v40h100v200h40v-200h162v-40zM206 -100v60h60v-60l-29 -70h-21l20 70h-30z" />
    <glyph glyph-name="u" unicode="u" horiz-adv-x="548" 
d="M488 220c0 -162 -79 -220 -214 -220s-214 58 -214 220v280h40v-300c0 -90 38 -160 174 -160s174 70 174 160v300h40v-280z" />
    <glyph glyph-name="uacute" unicode="&#xfa;" horiz-adv-x="548" 
d="M345 760h47l-91 -150h-47zM488 220c0 -162 -79 -220 -214 -220s-214 58 -214 220v280h40v-300c0 -90 38 -160 174 -160s174 70 174 160v300h40v-280z" />
    <glyph glyph-name="ucircumflex" unicode="&#xfb;" horiz-adv-x="548" 
d="M271 726l-92 -126h-50l125 170h40l125 -170h-50l-92 126h-6zM448 500h40v-280c0 -162 -79 -220 -214 -220s-214 58 -214 220v280h40v-300c0 -90 38 -160 174 -160s174 70 174 160v300z" />
    <glyph glyph-name="udieresis" unicode="&#xfc;" horiz-adv-x="548" 
d="M174 700h60v-60h-60v60zM314 700h60v-60h-60v60zM488 220c0 -162 -79 -220 -214 -220s-214 58 -214 220v280h40v-300c0 -90 38 -160 174 -160s174 70 174 160v300h40v-280z" />
    <glyph glyph-name="ugrave" unicode="&#xf9;" horiz-adv-x="548" 
d="M206 760l91 -150h-47l-91 150h47zM488 220c0 -162 -79 -220 -214 -220s-214 58 -214 220v280h40v-300c0 -90 38 -160 174 -160s174 70 174 160v300h40v-280z" />
    <glyph glyph-name="uhungarumlaut" unicode="&#x171;" horiz-adv-x="548" 
d="M275 760h47l-91 -150h-47zM415 760h47l-91 -150h-47zM488 220c0 -162 -79 -220 -214 -220s-214 58 -214 220v280h40v-300c0 -90 38 -160 174 -160s174 70 174 160v300h40v-280z" />
    <glyph glyph-name="umacron" unicode="&#x16b;" horiz-adv-x="548" 
d="M118 660v40h312v-40h-312zM488 220c0 -162 -79 -220 -214 -220s-214 58 -214 220v280h40v-300c0 -90 38 -160 174 -160s174 70 174 160v300h40v-280z" />
    <glyph glyph-name="uogonek" unicode="&#x173;" horiz-adv-x="548" 
d="M448 500h40v-280c0 -133 -53 -196 -147 -214c-41 -53 -56 -145 91 -126v-40c-165 -19 -187 98 -137 161c-7 -1 -14 -1 -21 -1c-135 0 -214 58 -214 220v280h40v-300c0 -90 38 -160 174 -160s174 70 174 160v300z" />
    <glyph glyph-name="uring" unicode="&#x16f;" horiz-adv-x="548" 
d="M274 590c-73 0 -120 57 -120 120s47 120 120 120c72 0 120 -57 120 -120s-48 -120 -120 -120zM274 630c33 0 80 18 80 80s-47 80 -80 80s-80 -18 -80 -80s47 -80 80 -80zM488 220c0 -162 -79 -220 -214 -220s-214 58 -214 220v280h40v-300c0 -90 38 -160 174 -160
s174 70 174 160v300h40v-280z" />
    <glyph glyph-name="v" unicode="v" horiz-adv-x="558" 
d="M455 500h43l-186 -500h-66l-186 500h43l168 -452h16z" />
    <glyph glyph-name="w" unicode="w" horiz-adv-x="964" 
d="M861 500h43l-186 -500h-66l-162 452h-16l-162 -452h-66l-186 500h43l168 -452h16l162 452h66l162 -452h16z" />
    <glyph glyph-name="wacute" unicode="&#x1e83;" horiz-adv-x="964" 
d="M600 760l-91 -150h-47l91 150h47zM861 500h43l-186 -500h-66l-162 452h-16l-162 -452h-66l-186 500h43l168 -452h16l162 452h66l162 -452h16z" />
    <glyph glyph-name="wcircumflex" unicode="&#x175;" horiz-adv-x="964" 
d="M479 726l-92 -126h-50l125 170h40l125 -170h-50l-92 126h-6zM861 500h43l-186 -500h-66l-162 452h-16l-162 -452h-66l-186 500h43l168 -452h16l162 452h66l162 -452h16z" />
    <glyph glyph-name="wdieresis" unicode="&#x1e85;" horiz-adv-x="964" 
d="M442 700v-60h-60v60h60zM582 700v-60h-60v60h60zM861 500h43l-186 -500h-66l-162 452h-16l-162 -452h-66l-186 500h43l168 -452h16l162 452h66l162 -452h16z" />
    <glyph glyph-name="wgrave" unicode="&#x1e81;" horiz-adv-x="964" 
d="M505 610h-47l-91 150h47zM861 500h43l-186 -500h-66l-162 452h-16l-162 -452h-66l-186 500h43l168 -452h16l162 452h66l162 -452h16z" />
    <glyph glyph-name="x" unicode="x" horiz-adv-x="538" 
d="M488 500l-192 -250l192 -250h-50l-166 215h-6l-166 -215h-50l192 250l-192 250h50l166 -215h6l166 215h50z" />
    <glyph glyph-name="y" unicode="y" horiz-adv-x="558" 
d="M448 500h40v-660h-370v40h330v250c-30 -63 -104 -90 -174 -90c-156 0 -214 83 -214 230v230h40v-230c0 -120 36 -190 174 -190s174 90 174 190v230z" />
    <glyph glyph-name="yacute" unicode="&#xfd;" horiz-adv-x="558" 
d="M392 760l-91 -150h-47l91 150h47zM448 500h40v-660h-370v40h330v250c-30 -63 -104 -90 -174 -90c-156 0 -214 83 -214 230v230h40v-230c0 -120 36 -190 174 -190s174 90 174 190v230z" />
    <glyph glyph-name="ycircumflex" unicode="&#x177;" horiz-adv-x="558" 
d="M271 726l-92 -126h-50l125 170h40l125 -170h-50l-92 126h-6zM448 500h40v-660h-370v40h330v250c-30 -63 -104 -90 -174 -90c-156 0 -214 83 -214 230v230h40v-230c0 -120 36 -190 174 -190s174 90 174 190v230z" />
    <glyph glyph-name="ydieresis" unicode="&#xff;" horiz-adv-x="558" 
d="M234 700v-60h-60v60h60zM374 700v-60h-60v60h60zM448 500h40v-660h-370v40h330v250c-30 -63 -104 -90 -174 -90c-156 0 -214 83 -214 230v230h40v-230c0 -120 36 -190 174 -190s174 90 174 190v230z" />
    <glyph glyph-name="ygrave" unicode="&#x1ef3;" horiz-adv-x="558" 
d="M297 610h-47l-91 150h47zM448 500h40v-660h-370v40h330v250c-30 -63 -104 -90 -174 -90c-156 0 -214 83 -214 230v230h40v-230c0 -120 36 -190 174 -190s174 90 174 190v230z" />
    <glyph glyph-name="z" unicode="z" horiz-adv-x="555" 
d="M495 500v-40l-381 -420h381v-40h-435v40l381 420h-381v40h435z" />
    <glyph glyph-name="zacute" unicode="&#x17a;" horiz-adv-x="555" 
d="M396 760l-91 -150h-47l91 150h47zM495 500v-40l-381 -420h381v-40h-435v40l381 420h-381v40h435z" />
    <glyph glyph-name="zcaron" unicode="&#x17e;" horiz-adv-x="555" 
d="M258 610l-125 170h50l92 -126h6l92 126h50l-125 -170h-40zM495 500v-40l-381 -420h381v-40h-435v40l381 420h-381v40h435z" />
    <glyph glyph-name="zdotaccent" unicode="&#x17c;" horiz-adv-x="555" 
d="M308 700v-60h-60v60h60zM495 500v-40l-381 -420h381v-40h-435v40l381 420h-381v40h435z" />
    <glyph glyph-name="a.001" horiz-adv-x="588" 
d="M488 500h40v-500h-40v110c-40 -83 -139 -110 -194 -110c-167 0 -234 123 -234 250s67 250 234 250c55 0 154 -27 194 -110v110zM294 40c88 0 194 60 194 210s-106 210 -194 210c-98 0 -194 -55 -194 -210s96 -210 194 -210z" />
    <glyph glyph-name="a.ss01" horiz-adv-x="628" 
d="M518 40h50v-40h-90v110c-40 -83 -139 -110 -194 -110c-167 0 -234 123 -234 250s67 250 234 250c55 0 154 -27 194 -110v110h40v-460zM284 40c88 0 194 60 194 210s-106 210 -194 210c-98 0 -194 -55 -194 -210s96 -210 194 -210z" />
    <glyph glyph-name="s.ss01" horiz-adv-x="496" 
d="M436 460h-314v-184h314v-276h-376v40h336v196h-314v264h354v-40z" />
    <glyph glyph-name="u.ss01" horiz-adv-x="550" 
d="M440 500h40v-500h-420v500h40v-460h340v460z" />
    <glyph glyph-name="f_i" horiz-adv-x="512" 
d="M442 500v-500h-40v460h-212v-460h-40v460h-100v40h100v200h192v-40h-152v-160h252zM402 700h40v-100h-40v100z" />
    <glyph glyph-name="f_l" horiz-adv-x="532" 
d="M462 700v-700h-40v660h-232v-160h172v-40h-172v-460h-40v460h-100v40h100v200h312z" />
    <glyph glyph-name="uni0410" unicode="&#x410;" horiz-adv-x="646" 
d="M544 0l-62 185h-318l-62 -185h-42l229 680h68l229 -680h-42zM178 225h290l-137 407h-16z" />
    <glyph glyph-name="uni0411" unicode="&#x411;" horiz-adv-x="598" 
d="M319 410c162 0 219 -98 219 -205s-57 -205 -219 -205h-249v680h400v-40h-360v-230h209zM319 40c83 0 179 25 179 165s-96 165 -179 165h-209v-330h209z" />
    <glyph glyph-name="uni0412" unicode="&#x412;" horiz-adv-x="568" 
d="M392 352c87 -15 116 -99 116 -167c0 -102 -44 -185 -199 -185h-239v680h229c152 0 179 -93 179 -165c0 -62 -16 -123 -86 -147v-16zM110 640v-260h189c117 0 139 65 139 135c0 65 -22 125 -139 125h-189zM309 40c119 0 159 50 159 145c0 85 -50 155 -169 155h-189v-300
h199z" />
    <glyph glyph-name="uni0413" unicode="&#x413;" horiz-adv-x="482" 
d="M442 680v-40h-332v-640h-40v680h372z" />
    <glyph glyph-name="uni0414" unicode="&#x414;" horiz-adv-x="772" 
d="M662 40h40v-200h-40v160h-552v-160h-40v200h53c87 107 87 411 87 637v3h452v-640zM173 40h449v600h-372c1 -222 -3 -499 -77 -600z" />
    <glyph glyph-name="uni0415" unicode="&#x415;" horiz-adv-x="568" 
d="M508 640h-398v-270h308v-40h-308v-290h398v-40h-438v680h438v-40z" />
    <glyph glyph-name="uni0401" unicode="&#x401;" horiz-adv-x="568" 
d="M239 880v-60h-60v60h60zM379 880v-60h-60v60h60zM508 640h-398v-270h308v-40h-308v-290h398v-40h-438v680h438v-40z" />
    <glyph glyph-name="uni0416" unicode="&#x416;" horiz-adv-x="900" 
d="M840 680l-242 -340l242 -340h-49l-228 320h-93v-320h-40v320h-93l-228 -320h-49l242 340l-242 340h49l228 -320h93v320h40v-320h93l228 320h49z" />
    <glyph glyph-name="uni0417" unicode="&#x417;" horiz-adv-x="598" 
d="M60 230h40c0 -158 96 -190 199 -190s199 30 199 150c0 107 -111 142 -214 142h-54v40h54c103 0 194 35 194 128c0 110 -96 140 -179 140c-103 0 -199 -33 -199 -180h-40c0 117 57 220 239 220c162 0 219 -93 219 -170c0 -74 -43 -133 -126 -147v-16
c97 -15 146 -82 146 -157c0 -97 -57 -190 -239 -190s-239 103 -239 230z" />
    <glyph glyph-name="uni0418" unicode="&#x418;" horiz-adv-x="640" 
d="M530 680h40v-680h-40v586h-16l-404 -586h-40v680h40v-586h16z" />
    <glyph glyph-name="uni0419" unicode="&#x419;" horiz-adv-x="640" 
d="M320 780c-75 0 -135 30 -135 150h40c0 -100 47 -110 95 -110s95 10 95 110h40c0 -118 -60 -150 -135 -150zM530 680h40v-680h-40v586h-16l-404 -586h-40v680h40v-586h16z" />
    <glyph glyph-name="uni041A" unicode="&#x41a;" horiz-adv-x="620" 
d="M508 0l-271 320h-127v-320h-40v680h40v-320h93c154 0 88 320 317 320v-40c-173 0 -125 -216 -247 -298v-3l287 -339h-52z" />
    <glyph glyph-name="uni041B" unicode="&#x41b;" horiz-adv-x="669" 
d="M609 680v-680h-40v640h-352c2 -290 10 -640 -157 -640v40c119 0 117 313 117 600v40h432z" />
    <glyph glyph-name="uni041C" unicode="&#x41c;" horiz-adv-x="874" 
d="M764 680h40v-680h-40v569h-16l-284 -513h-54l-284 513h-16v-569h-40v680h40l319 -576h16z" />
    <glyph glyph-name="uni041D" unicode="&#x41d;" horiz-adv-x="639" 
d="M529 680h40v-680h-40v310h-419v-310h-40v680h40v-330h419v330z" />
    <glyph glyph-name="uni041E" unicode="&#x41e;" horiz-adv-x="764" 
d="M382 0c-208 0 -332 150 -332 340s124 340 332 340s332 -150 332 -340s-124 -340 -332 -340zM382 40c167 0 292 102 292 300s-125 300 -292 300c-169 0 -292 -102 -292 -300s123 -300 292 -300z" />
    <glyph glyph-name="uni041F" unicode="&#x41f;" horiz-adv-x="648" 
d="M588 680v-680h-40v640h-448v-640h-40v680h528z" />
    <glyph glyph-name="uni0420" unicode="&#x420;" horiz-adv-x="629" 
d="M304 680c216 0 265 -95 265 -238s-49 -239 -265 -239h-194v-203h-40v680h234zM304 243c136 0 225 29 225 199c0 173 -89 198 -225 198h-194v-397h194z" />
    <glyph glyph-name="uni0421" unicode="&#x421;" horiz-adv-x="689" 
d="M50 340c0 170 84 340 302 340c186 0 281 -119 287 -259h-40c-27 168 -111 219 -247 219c-144 0 -262 -89 -262 -300s118 -300 262 -300c136 0 220 51 247 219h40c-6 -140 -101 -259 -287 -259c-218 0 -302 170 -302 340z" />
    <glyph glyph-name="uni0422" unicode="&#x422;" horiz-adv-x="638" 
d="M578 680v-40h-239v-640h-40v640h-239v40h518z" />
    <glyph glyph-name="uni0423" unicode="&#x423;" horiz-adv-x="548" 
d="M448 680h40v-680h-370v40h330v270c-30 -63 -104 -90 -174 -90c-156 0 -214 83 -214 230v230h40v-230c0 -120 36 -190 174 -190s174 90 174 190v230z" />
    <glyph glyph-name="uni0424" unicode="&#x424;" horiz-adv-x="764" 
d="M704 340c0 -164 -116 -263 -302 -270v-70h-40v70c-186 7 -302 106 -302 270s116 263 302 270v70h40v-70c186 -7 302 -106 302 -270zM100 340c0 -190 142 -226 262 -230v460c-120 -4 -262 -40 -262 -230zM402 110c120 4 262 40 262 230s-142 226 -262 230v-460z" />
    <glyph glyph-name="uni0425" unicode="&#x425;" horiz-adv-x="678" 
d="M618 680l-252 -340l252 -340h-50l-226 305h-6l-226 -305h-50l252 340l-252 340h50l226 -305h6l226 305h50z" />
    <glyph glyph-name="uni0427" unicode="&#x427;" horiz-adv-x="635" 
d="M535 680h40v-680h-40v300h-183c-232 0 -272 140 -272 380h40c0 -241 38 -340 232 -340h183v340z" />
    <glyph glyph-name="uni0426" unicode="&#x426;" horiz-adv-x="748" 
d="M688 40v-200h-40v160h-588v680h40v-640h448v640h40v-640h100z" />
    <glyph glyph-name="uni0428" unicode="&#x428;" horiz-adv-x="780" 
d="M680 680h40v-680h-660v680h40v-640h270v640h40v-640h270v640z" />
    <glyph glyph-name="uni0429" unicode="&#x429;" horiz-adv-x="880" 
d="M820 40v-200h-40v160h-720v680h40v-640h270v640h40v-640h270v640h40v-640h100z" />
    <glyph glyph-name="uni042C" unicode="&#x42c;" horiz-adv-x="588" 
d="M309 410c162 0 219 -98 219 -205s-57 -205 -219 -205h-249v680h40v-270h209zM309 40c83 0 179 25 179 165s-96 165 -179 165h-209v-330h209z" />
    <glyph glyph-name="uni042A" unicode="&#x42a;" horiz-adv-x="748" 
d="M469 410c162 0 219 -98 219 -205s-57 -205 -219 -205h-249v640h-160v40h200v-270h209zM469 40c83 0 179 25 179 165s-96 165 -179 165h-209v-330h209z" />
    <glyph glyph-name="uni042B" unicode="&#x42b;" horiz-adv-x="760" 
d="M309 410c162 0 219 -98 219 -205s-57 -205 -219 -205h-249v680h40v-270h209zM660 680h40v-680h-40v680zM309 40c83 0 179 25 179 165s-96 165 -179 165h-209v-330h209z" />
    <glyph glyph-name="uni042D" unicode="&#x42d;" horiz-adv-x="689" 
d="M337 680c218 0 302 -170 302 -340s-84 -340 -302 -340c-186 0 -281 119 -287 259h40c27 -168 111 -219 247 -219c139 0 254 83 262 280h-262v40h262c-8 197 -123 280 -262 280c-136 0 -220 -51 -247 -219h-40c6 140 101 259 287 259z" />
    <glyph glyph-name="uni042E" unicode="&#x42e;" horiz-adv-x="900" 
d="M568 680c208 0 272 -160 272 -340s-64 -340 -272 -340c-200 0 -267 148 -272 320h-196v-320h-40v680h40v-320h196c5 172 72 320 272 320zM568 40c133 0 232 75 232 300s-99 300 -232 300c-134 0 -232 -75 -232 -300s98 -300 232 -300z" />
    <glyph glyph-name="uni042F" unicode="&#x42f;" horiz-adv-x="619" 
d="M325 680h224v-680h-40v253h-409v-253h-40v278h109v16c-50 17 -109 63 -109 168c0 123 49 218 265 218zM509 293v347h-184c-136 0 -225 -25 -225 -178c0 -140 79 -169 225 -169h184z" />
    <glyph glyph-name="uni0430" unicode="&#x430;" horiz-adv-x="588" 
d="M448 40h80v-40h-120v80c-20 -43 -84 -80 -164 -80c-132 0 -194 78 -194 175s62 175 194 175c80 0 144 -37 164 -80v190h-290v40h330v-460zM244 40c93 0 164 45 164 135s-71 135 -164 135s-154 -45 -154 -135s61 -135 154 -135z" />
    <glyph glyph-name="uni0431" unicode="&#x431;" horiz-adv-x="588" 
d="M294 500c177 0 234 -103 234 -250s-57 -250 -234 -250c-175 0 -234 134 -234 300v80c0 169 58 300 264 300c58 0 86 0 144 20v-38c-45 -22 -84 -22 -144 -22c-153 0 -222 -77 -224 -250c30 73 119 110 194 110zM294 40c98 0 194 27 194 210s-96 210 -194 210
s-194 -60 -194 -200c0 -160 96 -220 194 -220z" />
    <glyph glyph-name="uni0432" unicode="&#x432;" horiz-adv-x="494" 
d="M334 256c59 -8 100 -52 100 -126c0 -79 -50 -130 -166 -130h-208v500h208c105 0 151 -43 151 -122c0 -49 -36 -98 -85 -106v-16zM100 460v-176h162c46 0 117 19 117 97c0 80 -71 79 -117 79h-162zM256 40c61 0 138 5 138 90c0 89 -77 114 -138 114h-156v-204h156z" />
    <glyph glyph-name="uni0433" unicode="&#x433;" horiz-adv-x="462" 
d="M402 500v-40h-302v-460h-40v500h342z" />
    <glyph glyph-name="uni0434" unicode="&#x434;" horiz-adv-x="592" 
d="M502 40h40v-200h-40v160h-402v-160h-40v200h53c87 107 87 232 87 457v3h302v-460zM161 40h301v420h-222c0 -202 -6 -319 -79 -420z" />
    <glyph glyph-name="uni0435" unicode="&#x435;" horiz-adv-x="542" 
d="M482 260v-30h-391c3 -83 30 -190 213 -190c40 0 79 2 144 20v-40c-78 -20 -106 -20 -144 -20c-226 0 -254 151 -254 250c0 144 62 250 216 250s216 -93 216 -240zM90 270h352c0 160 -93 190 -176 190s-176 -40 -176 -190z" />
    <glyph glyph-name="uni0451" unicode="&#x451;" horiz-adv-x="542" 
d="M236 700v-60h-60v60h60zM376 700v-60h-60v60h60zM482 260v-30h-391c3 -83 30 -190 213 -190c40 0 79 2 144 20v-40c-78 -20 -106 -20 -144 -20c-226 0 -254 151 -254 250c0 144 62 250 216 250s216 -93 216 -240zM90 270h352c0 160 -93 190 -176 190s-176 -40 -176 -190z
" />
    <glyph glyph-name="uni0436" unicode="&#x436;" horiz-adv-x="758" 
d="M698 500l-189 -251l189 -249h-49l-176 229h-74v-229h-40v229h-74l-176 -229h-49l189 249l-189 251h49l176 -231h74v231h40v-231h74l176 231h49z" />
    <glyph glyph-name="uni0437" unicode="&#x437;" horiz-adv-x="518" 
d="M60 180h40c0 -118 96 -140 169 -140c63 0 149 17 149 100c0 68 -84 93 -137 93h-44v40h44c53 0 124 15 124 77c0 100 -96 110 -139 110c-53 0 -149 -20 -149 -120h-40c0 77 57 160 189 160c122 0 179 -70 179 -140c0 -53 -24 -92 -76 -99v-16c67 -10 89 -62 89 -105
c0 -68 -47 -140 -189 -140c-152 0 -209 83 -209 180z" />
    <glyph glyph-name="uni0438" unicode="&#x438;" horiz-adv-x="500" 
d="M400 500h40v-500h-40v407h-16l-284 -407h-40v500h40v-407h16z" />
    <glyph glyph-name="uni0439" unicode="&#x439;" horiz-adv-x="500" 
d="M240 600c-75 0 -135 30 -135 150h40c0 -100 47 -110 95 -110s95 10 95 110h40c0 -118 -60 -150 -135 -150zM400 500h40v-500h-40v407h-16l-284 -407h-40v500h40v-407h16z" />
    <glyph glyph-name="uni043A" unicode="&#x43a;" horiz-adv-x="529" 
d="M469 500l-189 -251l189 -249h-49l-176 229h-144v-229h-40v500h40v-231h144l176 231h49z" />
    <glyph glyph-name="uni043B" unicode="&#x43b;" horiz-adv-x="579" 
d="M519 500v-500h-40v460h-252c2 -203 6 -460 -167 -460v40c130 0 128 214 127 420v40h332z" />
    <glyph glyph-name="uni043C" unicode="&#x43c;" horiz-adv-x="654" 
d="M554 500h40v-500h-40v392h-16l-186 -326h-50l-186 326h-16v-392h-40v500h40l219 -383h16z" />
    <glyph glyph-name="uni043D" unicode="&#x43d;" horiz-adv-x="539" 
d="M439 500h40v-500h-40v219h-339v-219h-40v500h40v-241h339v241z" />
    <glyph glyph-name="uni043E" unicode="&#x43e;" horiz-adv-x="578" 
d="M289 0c-152 0 -239 103 -239 250s87 250 239 250s239 -103 239 -250s-87 -250 -239 -250zM289 40c133 0 199 88 199 210s-66 210 -199 210s-199 -88 -199 -210s66 -210 199 -210z" />
    <glyph glyph-name="uni043F" unicode="&#x43f;" horiz-adv-x="530" 
d="M470 500v-500h-40v460h-330v-460h-40v500h410z" />
    <glyph glyph-name="uni0440" unicode="&#x440;" horiz-adv-x="588" 
d="M304 500c167 0 234 -123 234 -250s-67 -250 -234 -250c-55 0 -154 27 -194 110v-270h-40v660h40v-110c40 83 139 110 194 110zM304 40c98 0 194 55 194 210s-96 210 -194 210c-88 0 -194 -60 -194 -210s106 -210 194 -210z" />
    <glyph glyph-name="uni0441" unicode="&#x441;" horiz-adv-x="542" 
d="M50 250c0 147 77 250 227 250c118 0 205 -81 205 -190h-40c-4 102 -85 150 -165 150c-91 0 -187 -45 -187 -210s96 -210 187 -210c80 0 161 48 165 150h40c0 -109 -87 -190 -205 -190c-150 0 -227 103 -227 250z" />
    <glyph glyph-name="uni0442" unicode="&#x442;" horiz-adv-x="508" 
d="M448 500v-40h-179v-460h-40v460h-179v40h398z" />
    <glyph glyph-name="uni0443" unicode="&#x443;" horiz-adv-x="558" 
d="M448 500h40v-660h-370v40h330v250c-30 -63 -104 -90 -174 -90c-156 0 -214 83 -214 230v230h40v-230c0 -120 36 -190 174 -190s174 90 174 190v230z" />
    <glyph glyph-name="uni0444" unicode="&#x444;" horiz-adv-x="704" 
d="M644 250c0 -145 -97 -243 -272 -250v-160h-40v160c-175 7 -272 105 -272 250s97 243 272 250v200h40v-200c175 -7 272 -105 272 -250zM100 250c0 -171 122 -206 232 -210v420c-110 -4 -232 -39 -232 -210zM372 40c109 4 232 40 232 210s-123 206 -232 210v-420z" />
    <glyph glyph-name="uni0445" unicode="&#x445;" horiz-adv-x="538" 
d="M488 500l-192 -250l192 -250h-50l-166 215h-6l-166 -215h-50l192 250l-192 250h50l166 -215h6l166 215h50z" />
    <glyph glyph-name="uni0447" unicode="&#x447;" horiz-adv-x="505" 
d="M405 500h40v-500h-40v200h-123c-183 0 -222 140 -222 300h40c0 -161 38 -260 182 -260h123v260z" />
    <glyph glyph-name="uni0446" unicode="&#x446;" horiz-adv-x="600" 
d="M570 40v-200h-40v160h-470v500h40v-460h330v460h40v-460h100z" />
    <glyph glyph-name="uni0448" unicode="&#x448;" horiz-adv-x="740" 
d="M640 500h40v-500h-620v500h40v-460h250v460h40v-460h250v460z" />
    <glyph glyph-name="uni0449" unicode="&#x449;" horiz-adv-x="820" 
d="M780 40v-200h-40v160h-680v500h40v-460h250v460h40v-460h250v460h40v-460h100z" />
    <glyph glyph-name="uni044C" unicode="&#x44c;" horiz-adv-x="487" 
d="M244 342c135 0 183 -82 183 -171s-48 -171 -183 -171h-184v500h40v-158h144zM228 40c69 0 159 13 159 131s-90 131 -159 131h-128v-262h128z" />
    <glyph glyph-name="uni044A" unicode="&#x44a;" horiz-adv-x="598" 
d="M355 342c135 0 183 -82 183 -171s-48 -171 -183 -171h-184v460h-111v40h151v-158h144zM339 40c69 0 159 13 159 131s-90 131 -159 131h-128v-262h128z" />
    <glyph glyph-name="uni044B" unicode="&#x44b;" horiz-adv-x="641" 
d="M244 342c135 0 183 -82 183 -171s-48 -171 -183 -171h-184v500h40v-158h144zM541 500h40v-500h-40v500zM228 40c69 0 159 13 159 131s-90 131 -159 131h-128v-262h128z" />
    <glyph glyph-name="uni044D" unicode="&#x44d;" horiz-adv-x="552" 
d="M275 500c150 0 227 -103 227 -250s-77 -250 -227 -250c-118 0 -205 81 -205 190h40c4 -102 85 -150 165 -150c87 0 179 41 187 190h-172v40h172c-8 149 -100 190 -187 190c-80 0 -161 -48 -165 -150h-40c0 109 87 190 205 190z" />
    <glyph glyph-name="uni044E" unicode="&#x44e;" horiz-adv-x="750" 
d="M473 500c173 0 217 -130 217 -250s-44 -250 -217 -250c-163 0 -212 116 -217 230h-156v-230h-40v500h40v-230h156c5 114 54 230 217 230zM473 40c98 0 177 49 177 210s-79 210 -177 210c-99 0 -177 -49 -177 -210s78 -210 177 -210z" />
    <glyph glyph-name="uni044F" unicode="&#x44f;" horiz-adv-x="489" 
d="M285 500h144v-500h-40v183h-279v-183h-40v207h89v16c-40 11 -99 29 -99 119c0 103 49 158 225 158zM389 223v237h-104c-96 0 -185 -15 -185 -118s89 -119 185 -119h104z" />
    <glyph glyph-name="zero" unicode="0" horiz-adv-x="664" 
d="M332 680c208 0 272 -150 272 -340s-64 -340 -272 -340s-272 150 -272 340s64 340 272 340zM503 108c38 46 61 119 61 232c0 234 -99 300 -232 300c-55 0 -103 -11 -142 -40zM100 340c0 -234 98 -300 232 -300c54 0 102 11 141 39l-312 493c-38 -46 -61 -120 -61 -232z
" />
    <glyph glyph-name="one" unicode="1" horiz-adv-x="362" 
d="M292 680v-680h-40v640h-192v40h232z" />
    <glyph glyph-name="two" unicode="2" horiz-adv-x="558" 
d="M357 250l-236 -210h367v-40h-428v40l285 253c93 80 113 131 113 187c0 130 -96 160 -179 160s-179 -30 -179 -190h-40c0 127 57 230 219 230s219 -103 219 -200s-53 -147 -141 -230z" />
    <glyph glyph-name="three" unicode="3" horiz-adv-x="578" 
d="M299 410c126 10 219 -63 219 -200c0 -107 -57 -210 -229 -210s-229 103 -229 210h40c0 -136 96 -170 189 -170s189 34 189 170c0 141 -111 170 -194 170h-15l-14 40l190 220h-355v40h408v-40z" />
    <glyph glyph-name="four" unicode="4" horiz-adv-x="480" 
d="M380 680h40v-680h-40v267h-320v363h40v-323h280v373z" />
    <glyph glyph-name="five" unicode="5" horiz-adv-x="584" 
d="M300 460c166 0 224 -113 224 -230s-56 -230 -234 -230c-126 0 -213 67 -230 176h44c16 -109 114 -136 186 -136c100 0 194 40 194 190s-94 190 -184 190c-70 0 -138 -25 -184 -86h-40l50 346h350v-40h-315l-36 -242c46 43 105 62 175 62z" />
    <glyph glyph-name="six" unicode="6" horiz-adv-x="588" 
d="M294 460c174 0 234 -113 234 -230s-60 -230 -234 -230c-171 0 -234 94 -234 290v90c0 109 25 300 254 300c38 0 66 0 144 -20v-38c-65 18 -104 18 -144 18c-172 0 -213 -114 -214 -289c19 35 63 109 194 109zM294 40c98 0 194 42 194 190s-96 190 -194 190
s-194 -50 -194 -160c0 -188 96 -220 194 -220z" />
    <glyph glyph-name="seven" unicode="7" horiz-adv-x="575" 
d="M60 680h455v-40l-302 -640h-44l302 640h-411v40z" />
    <glyph glyph-name="eight" unicode="8" horiz-adv-x="614" 
d="M60 195c0 72 27 137 139 167v16c-77 30 -99 84 -99 137c0 90 54 165 207 165s207 -75 207 -165c0 -53 -22 -107 -99 -137v-16c112 -30 139 -96 139 -167c0 -95 -54 -195 -247 -195s-247 100 -247 195zM140 515c0 -96 88 -125 167 -125c78 0 167 29 167 125
c0 106 -89 125 -167 125c-79 0 -167 -19 -167 -125zM100 195c0 -116 88 -155 207 -155c118 0 207 39 207 155s-89 155 -207 155c-119 0 -207 -39 -207 -155z" />
    <glyph glyph-name="nine" unicode="9" horiz-adv-x="588" 
d="M294 680c171 0 234 -94 234 -290v-90c0 -109 -25 -300 -254 -300c-38 0 -66 0 -144 20v38c65 -18 104 -18 144 -18c172 0 213 114 214 289c-19 -35 -63 -109 -194 -109c-174 0 -234 113 -234 230s60 230 234 230zM294 260c98 0 194 50 194 160c0 188 -96 220 -194 220
s-194 -42 -194 -190s96 -190 194 -190z" />
    <glyph glyph-name="zero.dnom" horiz-adv-x="446" 
d="M223 408c125 0 163 -90 163 -204s-38 -204 -163 -204s-163 90 -163 204s38 204 163 204zM325 65c23 28 37 72 37 139c0 140 -59 180 -139 180c-32 0 -62 -7 -85 -24zM84 204c0 -140 59 -180 139 -180c32 0 62 7 85 24l-187 295c-23 -28 -37 -72 -37 -139z" />
    <glyph glyph-name="one.dnom" horiz-adv-x="259" 
d="M199 408v-408h-24v384h-115v24h139z" />
    <glyph glyph-name="two.dnom" horiz-adv-x="383" 
d="M238 150l-141 -126h220v-24h-257v24l171 152c56 48 68 78 68 112c0 78 -58 96 -108 96c-49 0 -107 -18 -107 -114h-24c0 76 34 138 131 138c98 0 132 -62 132 -120s-32 -88 -85 -138z" />
    <glyph glyph-name="three.dnom" horiz-adv-x="395" 
d="M204 246c75 6 131 -38 131 -120c0 -64 -34 -126 -137 -126c-104 0 -138 62 -138 126h24c0 -82 58 -102 114 -102c55 0 113 20 113 102c0 85 -67 102 -116 102h-9l-9 24l114 132h-213v24h245v-24z" />
    <glyph glyph-name="four.dnom" horiz-adv-x="372" 
d="M252 408h24v-408h-24v160h-192v218h24v-194h168v224z" />
    <glyph glyph-name="five.dnom" horiz-adv-x="398" 
d="M204 276c100 0 134 -68 134 -138s-33 -138 -140 -138c-76 0 -128 40 -138 106h26c10 -66 69 -82 112 -82c60 0 116 24 116 114s-56 114 -110 114c-42 0 -83 -15 -110 -52h-24l30 208h210v-24h-189l-21 -145c27 25 62 37 104 37z" />
    <glyph glyph-name="six.dnom" horiz-adv-x="401" 
d="M200 276c105 0 141 -68 141 -138s-36 -138 -141 -138c-102 0 -140 56 -140 174v54c0 65 15 180 152 180c23 0 40 0 87 -12v-23c-39 11 -63 11 -87 11c-103 0 -127 -68 -128 -173c11 21 38 65 116 65zM200 24c59 0 117 25 117 114s-58 114 -117 114
c-58 0 -116 -30 -116 -96c0 -113 58 -132 116 -132z" />
    <glyph glyph-name="seven.dnom" horiz-adv-x="393" 
d="M60 408h273v-24l-181 -384h-27l182 384h-247v24z" />
    <glyph glyph-name="eight.dnom" horiz-adv-x="416" 
d="M60 117c0 43 16 82 83 100v10c-46 18 -59 50 -59 82c0 54 32 99 124 99s124 -45 124 -99c0 -32 -13 -64 -59 -82v-10c67 -18 83 -57 83 -100c0 -57 -32 -117 -148 -117s-148 60 -148 117zM108 309c0 -58 53 -75 100 -75s100 17 100 75c0 64 -53 75 -100 75
s-100 -11 -100 -75zM84 117c0 -70 53 -93 124 -93s124 23 124 93s-53 93 -124 93s-124 -23 -124 -93z" />
    <glyph glyph-name="nine.dnom" horiz-adv-x="401" 
d="M200 408c103 0 141 -56 141 -174v-54c0 -65 -15 -180 -153 -180c-22 0 -39 0 -86 12v23c39 -11 62 -11 86 -11c103 0 128 68 129 173c-12 -21 -38 -65 -117 -65c-104 0 -140 68 -140 138s36 138 140 138zM200 156c59 0 117 30 117 96c0 113 -58 132 -117 132
c-58 0 -116 -25 -116 -114s58 -114 116 -114z" />
    <glyph glyph-name="zero.numr" horiz-adv-x="446" 
d="M223 680c125 0 163 -90 163 -204s-38 -204 -163 -204s-163 90 -163 204s38 204 163 204zM325 337c23 28 37 72 37 139c0 140 -59 180 -139 180c-32 0 -62 -7 -85 -24zM84 476c0 -140 59 -180 139 -180c32 0 62 7 85 24l-187 295c-23 -28 -37 -72 -37 -139z" />
    <glyph glyph-name="one.numr" horiz-adv-x="259" 
d="M199 680v-408h-24v384h-115v24h139z" />
    <glyph glyph-name="two.numr" horiz-adv-x="383" 
d="M238 422l-141 -126h220v-24h-257v24l171 152c56 48 68 78 68 112c0 78 -58 96 -108 96c-49 0 -107 -18 -107 -114h-24c0 76 34 138 131 138c98 0 132 -62 132 -120s-32 -88 -85 -138z" />
    <glyph glyph-name="three.numr" horiz-adv-x="395" 
d="M204 518c75 6 131 -38 131 -120c0 -64 -34 -126 -137 -126c-104 0 -138 62 -138 126h24c0 -82 58 -102 114 -102c55 0 113 20 113 102c0 85 -67 102 -116 102h-9l-9 24l114 132h-213v24h245v-24z" />
    <glyph glyph-name="four.numr" horiz-adv-x="372" 
d="M252 680h24v-408h-24v160h-192v218h24v-194h168v224z" />
    <glyph glyph-name="five.numr" horiz-adv-x="398" 
d="M204 548c100 0 134 -68 134 -138s-33 -138 -140 -138c-76 0 -128 40 -138 106h26c10 -66 69 -82 112 -82c60 0 116 24 116 114s-56 114 -110 114c-42 0 -83 -15 -110 -52h-24l30 208h210v-24h-189l-21 -145c27 25 62 37 104 37z" />
    <glyph glyph-name="six.numr" horiz-adv-x="401" 
d="M200 548c105 0 141 -68 141 -138s-36 -138 -141 -138c-102 0 -140 56 -140 174v54c0 65 15 180 152 180c23 0 40 0 87 -12v-23c-39 11 -63 11 -87 11c-103 0 -127 -68 -128 -173c11 21 38 65 116 65zM200 296c59 0 117 25 117 114s-58 114 -117 114
c-58 0 -116 -30 -116 -96c0 -113 58 -132 116 -132z" />
    <glyph glyph-name="seven.numr" horiz-adv-x="393" 
d="M60 680h273v-24l-181 -384h-27l182 384h-247v24z" />
    <glyph glyph-name="eight.numr" horiz-adv-x="416" 
d="M60 389c0 43 16 82 83 100v10c-46 18 -59 50 -59 82c0 54 32 99 124 99s124 -45 124 -99c0 -32 -13 -64 -59 -82v-10c67 -18 83 -57 83 -100c0 -57 -32 -117 -148 -117s-148 60 -148 117zM108 581c0 -58 53 -75 100 -75s100 17 100 75c0 64 -53 75 -100 75
s-100 -11 -100 -75zM84 389c0 -70 53 -93 124 -93s124 23 124 93s-53 93 -124 93s-124 -23 -124 -93z" />
    <glyph glyph-name="nine.numr" horiz-adv-x="401" 
d="M200 680c103 0 141 -56 141 -174v-54c0 -65 -15 -180 -153 -180c-22 0 -39 0 -86 12v23c39 -11 62 -11 86 -11c103 0 128 68 129 173c-12 -21 -38 -65 -117 -65c-104 0 -140 68 -140 138s36 138 140 138zM200 428c59 0 117 30 117 96c0 113 -58 132 -117 132
c-58 0 -116 -25 -116 -114s58 -114 116 -114z" />
    <glyph glyph-name="fraction" unicode="&#x2044;" horiz-adv-x="641" 
d="M581 680l-491 -680h-30l491 680h30z" />
    <glyph glyph-name="onehalf" unicode="&#xbd;" horiz-adv-x="892" 
d="M175 272v384h-115v24h139v-408h-24zM639 680h30l-491 -680h-30zM747 150l-141 -126h220v-24h-257v24l171 152c56 48 68 78 68 112c0 78 -58 96 -108 96c-49 0 -107 -18 -107 -114h-24c0 76 34 138 131 138c98 0 132 -62 132 -120s-32 -88 -85 -138z" />
    <glyph glyph-name="onequarter" unicode="&#xbc;" horiz-adv-x="897" 
d="M175 272v384h-115v24h139v-408h-24zM631 680h30l-491 -680h-30zM777 408h24v-408h-24v160h-192v218h24v-194h168v224z" />
    <glyph glyph-name="threequarters" unicode="&#xbe;" horiz-adv-x="987" 
d="M335 398c0 -64 -34 -126 -137 -126c-104 0 -138 62 -138 126h24c0 -82 58 -102 114 -102c55 0 113 20 113 102c0 85 -67 102 -116 102h-9l-9 24l114 132h-213v24h245v-24l-119 -138c75 6 131 -38 131 -120zM721 680h30l-491 -680h-30zM867 408h24v-408h-24v160h-192v218
h24v-194h168v224z" />
    <glyph glyph-name="oneeighth" unicode="&#x215b;" horiz-adv-x="901" 
d="M175 272v384h-115v24h139v-408h-24zM641 680h30l-491 -680h-30zM758 217c67 -18 83 -57 83 -100c0 -57 -32 -117 -148 -117s-148 60 -148 117c0 43 16 82 83 100v10c-46 18 -59 50 -59 82c0 54 32 99 124 99s124 -45 124 -99c0 -32 -13 -64 -59 -82v-10zM593 309
c0 -58 53 -75 100 -75s100 17 100 75c0 64 -53 75 -100 75s-100 -11 -100 -75zM693 24c71 0 124 23 124 93s-53 93 -124 93s-124 -23 -124 -93s53 -93 124 -93z" />
    <glyph glyph-name="threeeighths" unicode="&#x215c;" horiz-adv-x="991" 
d="M335 398c0 -64 -34 -126 -137 -126c-104 0 -138 62 -138 126h24c0 -82 58 -102 114 -102c55 0 113 20 113 102c0 85 -67 102 -116 102h-9l-9 24l114 132h-213v24h245v-24l-119 -138c75 6 131 -38 131 -120zM721 680h30l-491 -680h-30zM848 217c67 -18 83 -57 83 -100
c0 -57 -32 -117 -148 -117s-148 60 -148 117c0 43 16 82 83 100v10c-46 18 -59 50 -59 82c0 54 32 99 124 99s124 -45 124 -99c0 -32 -13 -64 -59 -82v-10zM683 309c0 -58 53 -75 100 -75s100 17 100 75c0 64 -53 75 -100 75s-100 -11 -100 -75zM783 24c71 0 124 23 124 93
s-53 93 -124 93s-124 -23 -124 -93s53 -93 124 -93z" />
    <glyph glyph-name="fiveeighths" unicode="&#x215d;" horiz-adv-x="995" 
d="M338 410c0 -70 -33 -138 -140 -138c-76 0 -128 40 -138 106h26c10 -66 69 -82 112 -82c60 0 116 24 116 114s-56 114 -110 114c-42 0 -83 -15 -110 -52h-24l30 208h210v-24h-189l-21 -145c27 25 62 37 104 37c100 0 134 -68 134 -138zM725 680h30l-491 -680h-30zM852 217
c67 -18 83 -57 83 -100c0 -57 -32 -117 -148 -117s-148 60 -148 117c0 43 16 82 83 100v10c-46 18 -59 50 -59 82c0 54 32 99 124 99s124 -45 124 -99c0 -32 -13 -64 -59 -82v-10zM687 309c0 -58 53 -75 100 -75s100 17 100 75c0 64 -53 75 -100 75s-100 -11 -100 -75z
M787 24c71 0 124 23 124 93s-53 93 -124 93s-124 -23 -124 -93s53 -93 124 -93z" />
    <glyph glyph-name="seveneighths" unicode="&#x215e;" horiz-adv-x="891" 
d="M152 272h-27l182 384h-247v24h273v-24zM621 680h30l-491 -680h-30zM748 217c67 -18 83 -57 83 -100c0 -57 -32 -117 -148 -117s-148 60 -148 117c0 43 16 82 83 100v10c-46 18 -59 50 -59 82c0 54 32 99 124 99s124 -45 124 -99c0 -32 -13 -64 -59 -82v-10zM583 309
c0 -58 53 -75 100 -75s100 17 100 75c0 64 -53 75 -100 75s-100 -11 -100 -75zM683 24c71 0 124 23 124 93s-53 93 -124 93s-124 -23 -124 -93s53 -93 124 -93z" />
    <glyph glyph-name="asterisk" unicode="*" horiz-adv-x="400" 
d="M60 492l106 58l-106 58l20 34l103 -62l-3 120h40l-3 -120l103 62l20 -34l-106 -58l106 -58l-20 -34l-103 62l3 -120h-40l3 120l-103 -62z" />
    <glyph glyph-name="backslash" unicode="\" horiz-adv-x="471" 
d="M60 700h43l308 -860h-43z" />
    <glyph glyph-name="periodcentered" unicode="&#xb7;" 
d="M60 290h60v-60h-60v60z" />
    <glyph glyph-name="bullet" unicode="&#x2022;" horiz-adv-x="220" 
d="M60 300h100v-100h-100v100z" />
    <glyph glyph-name="colon" unicode=":" 
d="M60 340h60v-60h-60v60zM60 60h60v-60h-60v60z" />
    <glyph glyph-name="comma" unicode="," 
d="M60 60h60v-60l-30 -80h-30l19 80h-19v60z" />
    <glyph glyph-name="ellipsis" unicode="&#x2026;" horiz-adv-x="540" 
d="M60 60h60v-60h-60v60zM240 60h60v-60h-60v60zM420 60h60v-60h-60v60z" />
    <glyph glyph-name="exclam" unicode="!" horiz-adv-x="160" 
d="M60 180v500h40v-500h-40zM60 100h40v-100h-40v100z" />
    <glyph glyph-name="exclamdown" unicode="&#xa1;" horiz-adv-x="160" 
d="M60 400v100h40v-100h-40zM60 320h40v-500h-40v500z" />
    <glyph glyph-name="numbersign" unicode="#" horiz-adv-x="921" 
d="M861 370h-193l-86 -240h198v-40h-212l-90 -250h-43l90 250h-247l-90 -250h-43l90 250h-175v40h189l86 240h-194v40h208l104 290h43l-104 -290h247l104 290h43l-104 -290h179v-40zM539 130l86 240h-247l-86 -240h247z" />
    <glyph glyph-name="period" unicode="." 
d="M60 60h60v-60h-60v60z" />
    <glyph glyph-name="question" unicode="?" horiz-adv-x="588" 
d="M294 680c177 0 234 -103 234 -210c0 -155 -134 -204 -234 -204v-86h-40v126h40c133 0 194 75 194 164c0 135 -96 170 -194 170s-194 -35 -194 -190h-40c0 127 61 230 234 230zM254 0v100h40v-100h-40z" />
    <glyph glyph-name="questiondown" unicode="&#xbf;" horiz-adv-x="588" 
d="M334 500v-100h-40v100h40zM488 50h40c0 -127 -61 -230 -234 -230c-177 0 -234 103 -234 210c0 155 134 204 234 204v86h40v-126h-40c-133 0 -194 -75 -194 -164c0 -135 96 -170 194 -170s194 35 194 190z" />
    <glyph glyph-name="quotedbl" unicode="&#x22;" horiz-adv-x="310" 
d="M60 700h60v-200h-60v200zM190 700h60v-200h-60v200z" />
    <glyph glyph-name="quotesingle" unicode="'" 
d="M60 700h60v-200h-60v200z" />
    <glyph glyph-name="semicolon" unicode=";" 
d="M60 340h60v-60h-60v60zM60 60h60v-60l-30 -80h-30l19 80h-19v60z" />
    <glyph glyph-name="slash" unicode="/" horiz-adv-x="471" 
d="M411 700l-308 -860h-43l308 860h43z" />
    <glyph glyph-name="underscore" unicode="_" horiz-adv-x="660" 
d="M60 -110v40h540v-40h-540z" />
    <glyph glyph-name="braceleft" unicode="{" horiz-adv-x="309" 
d="M118 27c0 80 22 223 -58 223v40c80 0 58 143 58 223c0 121 12 187 131 187v-40c-80 0 -91 -14 -91 -191c0 -68 10 -196 -58 -196v-6c68 0 58 -128 58 -196c0 -177 11 -191 91 -191v-40c-119 0 -131 66 -131 187z" />
    <glyph glyph-name="braceright" unicode="}" horiz-adv-x="309" 
d="M191 27c0 -121 -12 -187 -131 -187v40c80 0 91 14 91 191c0 68 -10 196 58 196v6c-68 0 -58 128 -58 196c0 177 -11 191 -91 191v40c119 0 131 -66 131 -187c0 -80 -22 -223 58 -223v-40c-80 0 -58 -143 -58 -223z" />
    <glyph glyph-name="bracketleft" unicode="[" horiz-adv-x="379" 
d="M319 660h-219v-780h219v-40h-259v860h259v-40z" />
    <glyph glyph-name="bracketright" unicode="]" horiz-adv-x="379" 
d="M319 700v-860h-259v40h219v780h-219v40h259z" />
    <glyph glyph-name="parenleft" unicode="(" horiz-adv-x="287" 
d="M227 700c-169 -267 -169 -593 0 -860h-47c-160 267 -160 593 0 860h47z" />
    <glyph glyph-name="parenright" unicode=")" horiz-adv-x="287" 
d="M60 700h47c160 -267 160 -593 0 -860h-47c169 267 169 593 0 860z" />
    <glyph glyph-name="emdash" unicode="&#x2014;" horiz-adv-x="1160" 
d="M60 281v40h1040v-40h-1040z" />
    <glyph glyph-name="endash" unicode="&#x2013;" horiz-adv-x="700" 
d="M60 281v40h580v-40h-580z" />
    <glyph glyph-name="hyphen" unicode="-" horiz-adv-x="472" 
d="M60 281v40h352v-40h-352z" />
    <glyph glyph-name="guillemotleft" unicode="&#xab;" horiz-adv-x="498" 
d="M284 440l-170 -191l170 -189h-54l-170 189l170 191h54zM438 440l-170 -191l170 -189h-54l-170 189l170 191h54z" />
    <glyph glyph-name="guillemotright" unicode="&#xbb;" horiz-adv-x="498" 
d="M114 440l170 -191l-170 -189h-54l170 189l-170 191h54zM268 440l170 -191l-170 -189h-54l170 189l-170 191h54z" />
    <glyph glyph-name="guilsinglleft" unicode="&#x2039;" horiz-adv-x="344" 
d="M284 440l-170 -191l170 -189h-54l-170 189l170 191h54z" />
    <glyph glyph-name="guilsinglright" unicode="&#x203a;" horiz-adv-x="344" 
d="M114 440l170 -191l-170 -189h-54l170 189l-170 191h54z" />
    <glyph glyph-name="quotedblbase" unicode="&#x201e;" 
d="M60 60h60v-60l-30 -80h-30l19 80h-19v60z" />
    <glyph glyph-name="quotedblleft" unicode="&#x201c;" horiz-adv-x="310" 
d="M120 560h-60v60l30 80h30l-19 -80h19v-60zM250 560h-60v60l30 80h30l-19 -80h19v-60z" />
    <glyph glyph-name="quotedblright" unicode="&#x201d;" horiz-adv-x="310" 
d="M60 700h60v-60l-30 -80h-30l19 80h-19v60zM190 700h60v-60l-30 -80h-30l19 80h-19v60z" />
    <glyph glyph-name="quoteleft" unicode="&#x2018;" 
d="M120 560h-60v60l30 80h30l-19 -80h19v-60z" />
    <glyph glyph-name="quoteright" unicode="&#x2019;" 
d="M60 700h60v-60l-30 -80h-30l19 80h-19v60z" />
    <glyph glyph-name="quotesinglbase" unicode="&#x201a;" 
d="M60 60h60v-60l-30 -80h-30l19 80h-19v60z" />
    <glyph glyph-name="space" unicode=" " horiz-adv-x="380" 
 />
    <glyph glyph-name="cent" unicode="&#xa2;" horiz-adv-x="592" 
d="M316 160c108 2 162 60 176 130h40c-10 -86 -83 -165 -216 -170v-120h-40v121c-148 11 -216 109 -216 219s68 208 216 219v121h40v-120c133 -5 206 -84 216 -170h-40c-14 70 -68 128 -176 130v-360zM100 340c0 -117 78 -169 176 -178v356c-98 -9 -176 -61 -176 -178z" />
    <glyph glyph-name="currency" unicode="&#xa4;" horiz-adv-x="653" 
d="M593 112l-28 -30l-75 75c-40 -36 -95 -57 -163 -57s-124 21 -164 57l-75 -75l-28 27l77 77c-32 43 -49 99 -49 164c0 64 16 119 47 162l-75 75l28 28l74 -74c40 38 96 59 165 59c71 0 128 -23 168 -62l69 69l28 -27l-71 -71c29 -42 45 -97 45 -159
c0 -64 -17 -120 -48 -163zM327 140c133 0 199 88 199 210s-66 210 -199 210s-199 -88 -199 -210s66 -210 199 -210z" />
    <glyph glyph-name="dollar" unicode="$" horiz-adv-x="496" 
d="M436 220c0 -82 -65 -124 -156 -129v-91h-40v90c-66 3 -118 20 -180 54v45c60 -34 115 -55 180 -59v202c-130 39 -164 73 -164 139c0 75 57 118 164 119v90h40v-92c45 -4 90 -17 133 -37v-45c-47 23 -90 37 -133 42v-188c130 -41 156 -81 156 -140zM116 473
c0 -51 33 -73 124 -101v178c-77 -1 -124 -22 -124 -77zM280 131c66 4 116 31 116 87c0 61 -41 79 -116 102v-189z" />
    <glyph glyph-name="Euro" unicode="&#x20ac;" horiz-adv-x="579" 
d="M362 640c-137 0 -251 -63 -261 -269h261v-40h-262c0 -29 3 -56 7 -80h255v-40h-246c37 -129 133 -171 246 -171c36 0 81 0 157 20v-40c-76 -20 -121 -20 -157 -20c-218 0 -302 170 -302 340s84 340 302 340c36 0 81 0 157 -20v-40c-76 20 -121 20 -157 20z" />
    <glyph glyph-name="sterling" unicode="&#xa3;" horiz-adv-x="561" 
d="M334 640c-112 0 -202 -39 -202 -210c0 -28 8 -63 17 -100h259v-40h-249c27 -106 53 -220 -49 -250h391v-40h-441v40c166 56 32 240 32 400c0 120 45 240 242 240c36 0 83 -3 167 -20v-40c-85 18 -131 20 -167 20z" />
    <glyph glyph-name="yen" unicode="&#xa5;" horiz-adv-x="678" 
d="M618 680l-246 -379h202v-40h-215v-70h215v-40h-215v-151h-40v151h-214v40h214v70h-214v40h201l-246 379h47l229 -352h6l229 352h47z" />
    <glyph glyph-name="plus" unicode="+" horiz-adv-x="472" 
d="M412 321v-40h-156v-156h-40v156h-156v40h156v156h40v-156h156z" />
    <glyph glyph-name="minus" unicode="&#x2212;" horiz-adv-x="472" 
d="M60 281v40h352v-40h-352z" />
    <glyph glyph-name="multiply" unicode="&#xd7;" horiz-adv-x="397" 
d="M337 411l-110 -110l110 -110l-28 -29l-110 111l-111 -111l-28 29l110 110l-110 110l28 29l111 -110l110 110z" />
    <glyph glyph-name="divide" unicode="&#xf7;" horiz-adv-x="472" 
d="M206 470h60v-60h-60v60zM60 281v40h352v-40h-352zM206 152h60v-60h-60v60z" />
    <glyph glyph-name="equal" unicode="=" horiz-adv-x="472" 
d="M60 371v40h352v-40h-352zM60 191v40h352v-40h-352z" />
    <glyph glyph-name="notequal" unicode="&#x2260;" horiz-adv-x="472" 
d="M412 602l-97 -191h97v-40h-118l-71 -140h189v-40h-210l-97 -191h-45l97 191h-97v40h118l71 140h-189v40h210l97 191h45z" />
    <glyph glyph-name="greater" unicode="&#x3e;" horiz-adv-x="560" 
d="M60 495v45l440 -216v-46l-440 -216v45l390 191v6z" />
    <glyph glyph-name="less" unicode="&#x3c;" horiz-adv-x="560" 
d="M500 495l-390 -191v-6l390 -191v-45l-440 216v46l440 216v-45z" />
    <glyph glyph-name="greaterequal" unicode="&#x2265;" horiz-adv-x="560" 
d="M60 498v42l440 -145v-50l-440 -145v42l380 125v6zM60 70v40h440v-40h-440z" />
    <glyph glyph-name="lessequal" unicode="&#x2264;" horiz-adv-x="560" 
d="M500 498l-380 -125v-6l380 -125v-42l-440 145v50l440 145v-42zM500 70h-440v40h440v-40z" />
    <glyph glyph-name="plusminus" unicode="&#xb1;" horiz-adv-x="560" 
d="M300 390h200v-40h-200v-150h-40v150h-200v40h200v150h40v-150zM60 70v40h440v-40h-440z" />
    <glyph glyph-name="approxequal" unicode="&#x2248;" horiz-adv-x="594" 
d="M60 315c0 60 17 160 120 160c101 0 152 -120 234 -120c75 0 80 80 80 120h40c0 -60 -17 -160 -120 -160c-101 0 -152 120 -234 120c-75 0 -80 -80 -80 -120h-40zM60 115c0 60 17 160 120 160c101 0 152 -120 234 -120c75 0 80 80 80 120h40c0 -60 -17 -160 -120 -160
c-101 0 -152 120 -234 120c-75 0 -80 -80 -80 -120h-40z" />
    <glyph glyph-name="asciitilde" unicode="~" horiz-adv-x="594" 
d="M60 221c0 60 17 160 120 160c101 0 152 -120 234 -120c75 0 80 80 80 120h40c0 -60 -17 -160 -120 -160c-101 0 -152 120 -234 120c-75 0 -80 -80 -80 -120h-40z" />
    <glyph glyph-name="logicalnot" unicode="&#xac;" horiz-adv-x="569" 
d="M60 368h449v-270h-40v230h-409v40z" />
    <glyph glyph-name="emptyset" unicode="&#x2205;" horiz-adv-x="738" 
d="M678 584l-77 -78c44 -51 68 -120 68 -205c0 -187 -115 -301 -300 -301c-83 0 -152 23 -203 65l-78 -79l-28 28l78 79c-45 51 -69 122 -69 208c0 185 114 299 300 299c83 0 152 -23 203 -65l77 78zM109 301c0 -79 22 -138 57 -179l377 383c-48 39 -111 55 -174 55
c-131 0 -260 -69 -260 -259zM629 301c0 78 -22 135 -56 176l-378 -383c48 -38 111 -54 174 -54c130 0 260 69 260 261z" />
    <glyph glyph-name="infinity" unicode="&#x221e;" horiz-adv-x="954" 
d="M60 249c0 134 79 212 194 212c98 0 161 -62 223 -171c62 109 125 171 223 171c115 0 194 -78 194 -212s-79 -212 -194 -212c-98 0 -161 62 -223 171c-62 -109 -125 -171 -223 -171c-115 0 -194 78 -194 212zM100 249c0 -141 93 -172 154 -172c82 0 133 51 203 172
c-70 121 -121 172 -203 172c-61 0 -154 -31 -154 -172zM497 249c70 -121 121 -172 203 -172c61 0 154 31 154 172s-93 172 -154 172c-82 0 -133 -51 -203 -172z" />
    <glyph glyph-name="integral" unicode="&#x222b;" horiz-adv-x="663" 
d="M372 450l-41 -370c-15 -120 -19 -240 -158 -240c-26 0 -63 3 -113 20v40c61 -18 87 -20 113 -20c82 0 101 39 118 210l41 370c15 120 19 240 158 240c26 0 63 -3 113 -20v-40c-61 18 -87 20 -113 20c-82 0 -101 -39 -118 -210z" />
    <glyph glyph-name="product" unicode="&#x220f;" horiz-adv-x="701" 
d="M641 700v-40h-130v-820h-40v820h-241v-820h-40v820h-130v40h581z" />
    <glyph glyph-name="summation" unicode="&#x2211;" horiz-adv-x="571" 
d="M511 660h-393v-6l326 -371v-26l-326 -371v-6h393v-40h-451v40l340 387v6l-340 387v40h451v-40z" />
    <glyph glyph-name="radical" unicode="&#x221a;" horiz-adv-x="776" 
d="M502 700h214v-40h-184l-250 -820h-52l-170 356h44l146 -306h6z" />
    <glyph glyph-name="partialdiff" unicode="&#x2202;" horiz-adv-x="608" 
d="M204 700c212 -81 344 -226 344 -450c0 -180 -118 -250 -249 -250c-111 0 -239 60 -239 220c0 154 105 224 239 224c67 0 145 -21 193 -75c-38 142 -143 233 -301 293zM299 40c121 0 209 68 209 200c0 128 -132 164 -209 164c-96 0 -199 -41 -199 -184
c0 -120 88 -180 199 -180z" />
    <glyph glyph-name="percent" unicode="%" horiz-adv-x="1090" 
d="M269 260c-132 0 -209 83 -209 210s77 210 209 210s209 -83 209 -210s-77 -210 -209 -210zM684 680l-231 -680h-42l231 680h42zM269 300c73 0 169 33 169 170s-96 170 -169 170s-169 -33 -169 -170s96 -170 169 -170zM826 0c-132 0 -209 83 -209 210s77 210 209 210
s204 -83 204 -210s-72 -210 -204 -210zM826 40c73 0 169 33 169 170s-96 170 -169 170s-169 -33 -169 -170s96 -170 169 -170z" />
    <glyph glyph-name="perthousand" unicode="&#x2030;" horiz-adv-x="1560" 
d="M269 260c-132 0 -209 83 -209 210s77 210 209 210s209 -83 209 -210s-77 -210 -209 -210zM684 680l-231 -680h-42l231 680h42zM269 300c73 0 169 33 169 170s-96 170 -169 170s-169 -33 -169 -170s96 -170 169 -170zM826 0c-132 0 -209 83 -209 210s77 210 209 210
s204 -83 204 -210s-72 -210 -204 -210zM1296 0c-132 0 -209 83 -209 210s77 210 209 210s204 -83 204 -210s-72 -210 -204 -210zM826 40c73 0 169 33 169 170s-96 170 -169 170s-169 -33 -169 -170s96 -170 169 -170zM1296 40c73 0 169 33 169 170s-96 170 -169 170
s-169 -33 -169 -170s96 -170 169 -170z" />
    <glyph glyph-name="arrowup" unicode="&#x2191;" horiz-adv-x="657" 
d="M597 432l-28 -28l-220 220v-784h-40v784l-220 -220l-29 28l269 268z" />
    <glyph glyph-name="uni2197" unicode="&#x2197;" horiz-adv-x="743" 
d="M303 574l380 -1v-379h-40v312l-554 -555l-29 28l555 555h-311z" />
    <glyph glyph-name="arrowright" unicode="&#x2192;" horiz-adv-x="980" 
d="M652 521l268 -269l-268 -268l-28 28l220 220h-784v40h784l-220 220z" />
    <glyph glyph-name="uni2198" unicode="&#x2198;" horiz-adv-x="743" 
d="M643 309h40v-379l-380 -1l1 40h311l-555 555l29 28l554 -555v312z" />
    <glyph glyph-name="arrowdown" unicode="&#x2193;" horiz-adv-x="657" 
d="M569 136l28 -28l-268 -268l-269 268l29 28l220 -220v784h40v-784z" />
    <glyph glyph-name="uni2199" unicode="&#x2199;" horiz-adv-x="743" 
d="M128 -31h311l1 -40l-380 1v379h40v-312l554 555l29 -28z" />
    <glyph glyph-name="arrowleft" unicode="&#x2190;" horiz-adv-x="980" 
d="M920 272v-40h-784l220 -220l-28 -28l-268 268l268 269l28 -29l-220 -220h784z" />
    <glyph glyph-name="uni2196" unicode="&#x2196;" horiz-adv-x="743" 
d="M683 -21l-29 -28l-554 555v-312h-40v379l380 1l-1 -40h-311z" />
    <glyph glyph-name="arrowboth" unicode="&#x2194;" horiz-adv-x="1060" 
d="M732 521l268 -269l-268 -268l-28 28l220 220h-788l220 -220l-28 -28l-268 268l268 269l28 -29l-220 -220h788l-220 220z" />
    <glyph glyph-name="arrowupdn" unicode="&#x2195;" horiz-adv-x="657" 
d="M348 -142l220 220l29 -28l-269 -268l-268 268l28 28l220 -220v788l-220 -220l-28 28l268 268l269 -268l-29 -28l-220 220v-788z" />
    <glyph glyph-name="lozenge" unicode="&#x25ca;" horiz-adv-x="398" 
d="M218 652l120 -312l-120 -312h-38l-120 312l120 312h38zM202 98l92 242l-92 242h-6l-92 -242l92 -242h6z" />
    <glyph glyph-name="at" unicode="@" horiz-adv-x="880" 
d="M60 700h760v-660h-226v84c-30 -43 -69 -84 -160 -84c-129 0 -188 103 -188 230s59 230 188 230c91 0 130 -41 160 -84v84h40v-420h146v580h-680v-780h620v-40h-660v860zM440 80c55 0 154 30 154 190s-99 190 -154 190c-68 0 -154 -30 -154 -190s86 -190 154 -190z" />
    <glyph glyph-name="ampersand" unicode="&#x26;" horiz-adv-x="705" 
d="M645 340h-162v-300h162v-40h-202v60c-50 -40 -104 -60 -174 -60c-146 0 -209 93 -209 190c0 69 34 136 116 162v16c-66 23 -96 83 -96 152c0 77 54 160 179 160c36 0 65 -3 109 -20v-42c-44 17 -73 22 -99 22c-73 0 -149 -30 -149 -120c0 -112 91 -140 174 -140h149v230
h40v-230h162v-40zM443 106v234h-149c-83 0 -194 -35 -194 -150c0 -119 96 -150 169 -150c70 0 124 26 174 66z" />
    <glyph glyph-name="paragraph" unicode="&#xb6;" horiz-adv-x="495" 
d="M60 512c0 93 39 188 215 188h40v-860h-40v483c-176 0 -215 96 -215 189zM395 700h40v-860h-40v860z" />
    <glyph glyph-name="section" unicode="&#xa7;" horiz-adv-x="594" 
d="M60 300c0 61 44 96 101 111c-76 30 -101 68 -101 132c0 98 80 157 212 157c72 0 157 -20 225 -54v-38c-85 33 -154 52 -238 52c-98 0 -159 -41 -159 -120c0 -76 51 -95 192 -126c184 -40 242 -83 242 -174c0 -61 -45 -96 -102 -111c76 -30 102 -68 102 -132
c0 -98 -80 -157 -212 -157c-72 0 -157 20 -225 54v38c85 -33 154 -52 238 -52c93 0 159 41 159 120c0 76 -64 96 -192 126c-186 44 -242 83 -242 174zM100 300c0 -91 95 -109 209 -135c102 -23 185 4 185 75c0 91 -95 109 -209 135c-102 23 -185 -4 -185 -75z" />
    <glyph glyph-name="copyright" unicode="&#xa9;" horiz-adv-x="800" 
d="M60 680h680v-680h-680v680zM700 40v600h-600v-600h600zM408 160c-117 0 -184 83 -184 180s67 180 184 180c101 0 158 -61 168 -140h-40c-14 72 -71 100 -128 100c-54 0 -144 -20 -144 -140s90 -140 144 -140c57 0 114 28 128 100h40c-10 -81 -67 -140 -168 -140z" />
    <glyph glyph-name="registered" unicode="&#xae;" horiz-adv-x="660" 
d="M60 700h540v-540h-540v540zM560 200v460h-460v-460h460zM260 500v-180h-40v220h220v-40h-180z" />
    <glyph glyph-name="trademark" unicode="&#x2122;" horiz-adv-x="996" 
d="M408 700v-40h-154v-300h-40v300h-154v40h348zM936 700v-340h-40v300h-180v-300h-40v300h-180v-300h-40v340h480z" />
    <glyph glyph-name="degree" unicode="&#xb0;" horiz-adv-x="518" 
d="M259 300c-122 0 -199 83 -199 200s77 200 199 200s199 -83 199 -200s-77 -200 -199 -200zM259 340c73 0 159 40 159 160s-86 160 -159 160s-159 -40 -159 -160s86 -160 159 -160z" />
    <glyph glyph-name="bar" unicode="|" horiz-adv-x="160" 
d="M60 700h40v-860h-40v860z" />
    <glyph glyph-name="brokenbar" unicode="&#xa6;" horiz-adv-x="160" 
d="M60 700h40v-324h-40v324zM60 164h40v-324h-40v324z" />
    <glyph glyph-name="dagger" unicode="&#x2020;" horiz-adv-x="472" 
d="M412 542v-40h-156v-329h-40v329h-156v40h156v158h40v-158h156z" />
    <glyph glyph-name="daggerdbl" unicode="&#x2021;" horiz-adv-x="472" 
d="M412 502h-156v-140h156v-40h-156v-149h-40v149h-156v40h156v140h-156v40h156v158h40v-158h156v-40z" />
    <glyph glyph-name="asciicircum" unicode="^" horiz-adv-x="398" 
d="M294 368l-92 242h-6l-92 -242h-44l120 312h38l120 -312h-44z" />
    <glyph glyph-name="uni0308" unicode="&#x308;" horiz-adv-x="0" 
d="M-260 700h60v-60h-60v60zM-120 700h60v-60h-60v60z" />
    <glyph glyph-name="uni0307" unicode="&#x307;" horiz-adv-x="0" 
d="M-120 700h60v-60h-60v60z" />
    <glyph glyph-name="gravecomb" unicode="&#x300;" horiz-adv-x="0" 
d="M-218 760l91 -150h-47l-91 150h47z" />
    <glyph glyph-name="acutecomb" unicode="&#x301;" horiz-adv-x="0" 
d="M-169 760h47l-91 -150h-47z" />
    <glyph glyph-name="uni030B" unicode="&#x30b;" horiz-adv-x="0" 
d="M-339 760h47l-91 -150h-47zM-199 760h47l-91 -150h-47z" />
    <glyph glyph-name="uni0302" unicode="&#x302;" horiz-adv-x="0" 
d="M-185 770l125 -170h-50l-92 126h-6l-92 -126h-50l125 170h40z" />
    <glyph glyph-name="uni030C" unicode="&#x30c;" horiz-adv-x="0" 
d="M-110 780h50l-125 -170h-40l-125 170h50l92 -126h6z" />
    <glyph glyph-name="uni0306" unicode="&#x306;" horiz-adv-x="0" 
d="M-330 750h40c0 -100 47 -110 95 -110s95 10 95 110h40c0 -118 -60 -150 -135 -150s-135 30 -135 150z" />
    <glyph glyph-name="uni030A" unicode="&#x30a;" horiz-adv-x="0" 
d="M-180 590c-73 0 -120 57 -120 120s47 120 120 120c72 0 120 -57 120 -120s-48 -120 -120 -120zM-180 630c33 0 80 18 80 80s-47 80 -80 80s-80 -18 -80 -80s47 -80 80 -80z" />
    <glyph glyph-name="tildecomb" unicode="&#x303;" horiz-adv-x="0" 
d="M-414 620c0 50 14 140 100 140c81 0 98 -100 154 -100c33 0 60 20 60 100h40c0 -50 -14 -140 -100 -140c-81 0 -98 100 -154 100c-33 0 -60 -20 -60 -100h-40z" />
    <glyph glyph-name="uni0304" unicode="&#x304;" horiz-adv-x="0" 
d="M-372 660v40h312v-40h-312z" />
    <glyph glyph-name="uni0312" unicode="&#x312;" horiz-adv-x="0" 
d="M-60 600h-60v60l30 80h30l-19 -80h19v-60z" />
    <glyph glyph-name="uni0326" unicode="&#x326;" horiz-adv-x="0" 
d="M-120 -40h60v-60l-29 -70h-21l20 70h-30v60z" />
    <glyph glyph-name="uni0327" unicode="&#x327;" horiz-adv-x="0" 
d="M-188 -120c107 0 117 90 33 90l25 40h39l-19 -30c80 0 68 -140 -78 -140v40z" />
    <glyph glyph-name="uni0328" unicode="&#x328;" horiz-adv-x="0" 
d="M-60 -120v-40c-174 -20 -189 111 -128 170h40c-43 -52 -63 -150 88 -130z" />
    <glyph glyph-name="uni0335" unicode="&#x335;" horiz-adv-x="0" 
d="M-372 281v40h312v-40h-312z" />
    <glyph glyph-name="uni0336" unicode="&#x336;" horiz-adv-x="0" 
d="M-720 281v40h660v-40h-660z" />
    <glyph glyph-name="uni0337" unicode="&#x337;" horiz-adv-x="0" 
d="M-372 256l312 167v-45l-312 -167v45z" />
    <glyph glyph-name="uni0338" unicode="&#x338;" horiz-adv-x="0" 
 />
    <glyph glyph-name="acute" unicode="&#xb4;" horiz-adv-x="258" 
d="M151 760h47l-91 -150h-47z" />
    <glyph glyph-name="breve" unicode="&#x2d8;" horiz-adv-x="390" 
d="M60 750h40c0 -100 47 -110 95 -110s95 10 95 110h40c0 -118 -60 -150 -135 -150s-135 30 -135 150z" />
    <glyph glyph-name="caron" unicode="&#x2c7;" horiz-adv-x="410" 
d="M300 780h50l-125 -170h-40l-125 170h50l92 -126h6z" />
    <glyph glyph-name="cedilla" unicode="&#xb8;" horiz-adv-x="247" 
d="M60 -120c107 0 117 90 33 90l25 40h39l-19 -30c80 0 68 -140 -78 -140v40z" />
    <glyph glyph-name="circumflex" unicode="&#x2c6;" horiz-adv-x="410" 
d="M225 800l125 -170h-50l-92 126h-6l-92 -126h-50l125 170h40z" />
    <glyph glyph-name="dieresis" unicode="&#xa8;" horiz-adv-x="320" 
d="M60 700h60v-60h-60v60zM200 700h60v-60h-60v60z" />
    <glyph glyph-name="dotaccent" unicode="&#x2d9;" 
d="M60 700h60v-60h-60v60z" />
    <glyph glyph-name="grave" unicode="`" horiz-adv-x="320" 
d="M169 760l91 -150h-47l-91 150h47z" />
    <glyph glyph-name="hungarumlaut" unicode="&#x2dd;" horiz-adv-x="398" 
d="M151 760h47l-91 -150h-47zM291 760h47l-91 -150h-47z" />
    <glyph glyph-name="macron" unicode="&#xaf;" horiz-adv-x="432" 
d="M60 660v40h312v-40h-312z" />
    <glyph glyph-name="ogonek" unicode="&#x2db;" horiz-adv-x="281" 
d="M221 -120v-40c-174 -20 -189 111 -128 170h40c-43 -52 -63 -150 88 -130z" />
    <glyph glyph-name="ring" unicode="&#x2da;" horiz-adv-x="360" 
d="M180 590c-73 0 -120 57 -120 120s47 120 120 120c72 0 120 -57 120 -120s-48 -120 -120 -120zM180 630c33 0 80 18 80 80s-47 80 -80 80s-80 -18 -80 -80s47 -80 80 -80z" />
    <glyph glyph-name="tilde" unicode="&#x2dc;" horiz-adv-x="474" 
d="M60 620c0 50 14 140 100 140c81 0 98 -100 154 -100c33 0 60 20 60 100h40c0 -50 -14 -140 -100 -140c-81 0 -98 100 -154 100c-33 0 -60 -20 -60 -100h-40z" />
    <glyph glyph-name="brevecombcy" horiz-adv-x="0" 
d="M-350 750h40c0 -100 47 -110 95 -110s95 10 95 110h40c0 -118 -60 -150 -135 -150s-135 30 -135 150z" />
    </font>
</defs>
</svg>
